<?xml version="1.0" standalone="no"?>
<!DOCTYPE svg PUBLIC "-//W3C//DTD SVG 1.1//EN" "http://www.w3.org/Graphics/SVG/1.1/DTD/svg11.dtd" >
<svg xmlns="http://www.w3.org/2000/svg" xmlns:xlink="http://www.w3.org/1999/xlink" version="1.1">
<metadata>
Created by FontForge 20230101 at Wed Nov 28 10:10:18 2018
 By Webmaster
Copyright \(c\) 2014 by Igor Kuznetsov for Studio Design Klimov. All rights reserved.
</metadata>
<defs>
<font id="Arkhip-Regular" horiz-adv-x="219" >
  <font-face 
    font-family="Arkhip"
    font-weight="400"
    font-stretch="normal"
    units-per-em="1000"
    panose-1="0 0 0 0 0 0 0 0 0 0"
    ascent="751"
    descent="-249"
    x-height="518"
    cap-height="746"
    bbox="0 -249 1477 946"
    underline-thickness="50"
    underline-position="-99"
    unicode-range="U+0020-2122"
  />
<missing-glyph horiz-adv-x="540" 
 />
    <glyph glyph-name=".notdef" horiz-adv-x="540" 
 />
    <glyph glyph-name="space" unicode=" " horiz-adv-x="271" 
 />
    <glyph glyph-name="exclam" unicode="!" horiz-adv-x="339" 
d="M121 746h105q-12 -365 -15 -550h-75q-3 185 -15 550zM130 17q17 -17 42 -17t42.5 17t17.5 42t-17.5 42.5t-42.5 17.5t-42 -17.5t-17 -42.5t17 -42z" />
    <glyph glyph-name="quotedbl" unicode="&#x22;" horiz-adv-x="400" 
d="M82 518l-22 241h114l-23 -241h-69zM247 518l-21 241h114l-24 -241h-69z" />
    <glyph glyph-name="numbersign" unicode="#" horiz-adv-x="821" 
d="M626 459l-24 -152h164l-12 -88h-164l-35 -219h-101l35 219h-174l-37 -219h-100l35 219h-163l11 88h163l26 152h-162l10 90h163l32 202h100l-31 -202h175l31 202h101l-31 -202h163l-10 -90h-165zM326 307h175l25 152h-176z" />
    <glyph glyph-name="dollar" unicode="$" horiz-adv-x="740" 
d="M433 832v-70q126 -18 224 -112l-68 -80q-44 35 -80 54t-76 26v-203q98 -7 154.5 -34.5t79.5 -73t23 -112.5q0 -95 -71 -158.5t-186 -78.5v-70h-96v65q-83 5 -159 44t-128 107l78 73q87 -107 209 -116v248q-124 4 -189.5 53t-65.5 140q0 58 32.5 110t91 85.5t131.5 37.5
v65h96zM337 449v207q-56 -6 -95 -41.5t-39 -79.5q0 -80 134 -86zM540 311q-38 24 -107 28v-239q64 12 104.5 44.5t40.5 82.5q0 60 -38 84z" />
    <glyph glyph-name="percent" unicode="%" horiz-adv-x="1029" 
d="M188 -39l541 757h117l-542 -757h-116zM458 408.5q-31 -45.5 -82 -70t-108 -24.5t-107 24t-80.5 69.5t-30.5 105.5q0 61 31 106t81.5 68.5t107.5 23.5t107.5 -22.5t81 -66.5t30.5 -107q0 -61 -31 -106.5zM361.5 597q-38.5 28 -91.5 28q-54 0 -92.5 -29.5t-38.5 -83.5
t38.5 -83t92.5 -29q52 0 91 31.5t39 82.5q0 55 -38.5 83zM948 53.5q-31 -45.5 -81.5 -69.5t-108.5 -24q-57 0 -107 24t-80.5 69t-30.5 105q0 61 31 106t81.5 68.5t107.5 23.5t107.5 -22.5t81 -66.5t30.5 -107q0 -61 -31 -106.5zM851.5 242q-38.5 28 -91.5 28
q-54 0 -92.5 -29.5t-38.5 -83.5t38.5 -83t92.5 -29q52 0 91 31.5t39 82.5q0 55 -38.5 83z" />
    <glyph glyph-name="ampersand" unicode="&#x26;" horiz-adv-x="870" 
d="M485 638q-49 20 -98 20q-37 0 -74 -12.5t-62 -40.5t-25 -72q0 -43 31.5 -68.5t79.5 -25.5h110l-8 -109h-104q-59 0 -104 -31t-45 -92q0 -114 164 -114q63 0 130 32.5t112 80.5l9 124h-77l9 109h257l-9 -109h-73l-24 -330h-106l6 93q-54 -48 -118 -75.5t-116 -27.5
q-137 0 -204.5 58.5t-67.5 156.5q0 125 105 200q-34 23 -50.5 51t-16.5 67q0 53 24.5 109t86 96t162.5 40q83 0 144 -32t102 -82l-68 -80q-33 44 -82 64z" />
    <glyph glyph-name="quoteright" unicode="&#x2019;" horiz-adv-x="239" 
d="M74 740.5q17 17.5 42 17.5q31 0 47.5 -20.5t16.5 -50.5q0 -46 -32 -96.5t-82 -76.5l-23 30q35 27 49.5 48.5t14.5 46.5q-22 3 -36 19.5t-14 39.5q0 25 17 42.5z" />
    <glyph glyph-name="parenleft" unicode="(" horiz-adv-x="426" 
d="M293 670.5q-48 -61.5 -80 -140t-32 -159.5q0 -76 31.5 -155t78.5 -142.5t92 -97.5l-66 -59q-114 91 -184.5 211t-70.5 246q0 87 34.5 172.5t97 159t143.5 123.5l51 -63q-47 -34 -95 -95.5z" />
    <glyph glyph-name="parenright" unicode=")" horiz-adv-x="426" 
d="M353.5 198q-34.5 -86 -96.5 -158.5t-143 -122.5l-52 63q47 32 95 93.5t80 140.5t32 160q0 76 -31.5 154.5t-78 142t-91.5 98.5l66 60q114 -92 184 -212.5t70 -245.5q0 -87 -34.5 -173z" />
    <glyph glyph-name="asterisk" unicode="*" horiz-adv-x="437" 
d="M376 530l-30 -55l-81 30l-13 -84h-63l-12 84l-85 -32l-32 56l69 54l-67 53l31 55l84 -30l12 86h63l13 -86l80 31l32 -56l-67 -53z" />
    <glyph glyph-name="plus" unicode="+" horiz-adv-x="595" 
d="M344 133h-93v188h-191v93h191v188h93v-188h191v-93h-191v-188z" />
    <glyph glyph-name="comma" unicode="," 
d="M67 104.5q17 17.5 42 17.5q31 0 47.5 -20.5t16.5 -50.5q0 -45 -32 -95.5t-82 -76.5l-23 30q35 27 49.5 48.5t14.5 45.5q-22 3 -36 19.5t-14 39.5q0 25 17 42.5z" />
    <glyph glyph-name="hyphen" unicode="-" horiz-adv-x="595" 
d="M60 414h475v-93h-475v93z" />
    <glyph glyph-name="period" unicode="." 
d="M67 104.5q17 17.5 42 17.5t42.5 -17.5t17.5 -42.5t-17.5 -42t-42.5 -17t-42 17t-17 42t17 42.5z" />
    <glyph glyph-name="slash" unicode="/" horiz-adv-x="630" 
d="M39 -28l416 773h124l-418 -773h-122z" />
    <glyph glyph-name="zero" unicode="0" horiz-adv-x="768" 
d="M230 23q-71 40 -115.5 127t-44.5 220t44.5 222.5t116 132.5t153.5 43t153.5 -43t116 -132.5t44.5 -222.5t-44.5 -220t-115.5 -127t-154 -40t-154 40zM562.5 528q-28.5 65 -75.5 97.5t-103 32.5t-103 -32.5t-75.5 -97.5t-28.5 -158t28 -155.5t75 -92.5t104 -30t104 30
t75 92.5t28 155.5t-28.5 158z" />
    <glyph glyph-name="one" unicode="1" horiz-adv-x="370" 
d="M153 611l-103 -85v137l103 89h107v-752h-107v611z" />
    <glyph glyph-name="two" unicode="2" horiz-adv-x="699" 
d="M218.5 733.5q73.5 34.5 141.5 34.5q156 0 204 -78t48 -153q0 -55 -37 -125.5t-154 -139.5l-61 -35q-72 -40 -105 -64.5t-56 -63.5h420v-109h-539v109q21 55 51 91.5t68.5 63t113.5 70.5q37 21 52 30q86 50 112.5 95t26.5 78q0 39 -27.5 80t-116.5 41q-48 0 -103.5 -25
t-93.5 -65l-70 82q52 49 125.5 83.5z" />
    <glyph glyph-name="three" unicode="3" horiz-adv-x="748" 
d="M621 746v-110l-185 -177q107 -11 169.5 -69t62.5 -151q0 -74 -40 -132.5t-107.5 -91t-147.5 -32.5q-47 0 -103.5 17t-107.5 47.5t-82 70.5l67 93q48 -60 109 -89.5t117 -29.5q51 0 93.5 18.5t68 52t25.5 76.5q0 58 -45.5 86.5t-126.5 28.5h-88v108l179 174h-325v110h467z
" />
    <glyph glyph-name="four" unicode="4" horiz-adv-x="760" 
d="M569 0h-110v191h-394v109l369 452h135v-452h111l-41 -109h-70v-191zM202 300h257v327z" />
    <glyph glyph-name="five" unicode="5" horiz-adv-x="743" 
d="M264.5 0q-56.5 17 -107.5 47.5t-82 70.5l67 91q48 -60 108.5 -88.5t117.5 -28.5q51 0 93.5 18.5t68 52t25.5 76.5q0 40 -21.5 72.5t-60.5 51t-90 18.5q-57 0 -103.5 -15t-74.5 -36l-92 15l75 401h410v-110h-322l-34 -181q21 15 60 24.5t81 9.5q82 0 146 -33t99 -90
t35 -127q0 -74 -40 -132.5t-107.5 -91t-147.5 -32.5q-47 0 -103.5 17z" />
    <glyph glyph-name="six" unicode="6" horiz-adv-x="715" 
d="M475 646.5q-40 11.5 -79 11.5q-90 0 -147.5 -62.5t-67.5 -171.5q78 76 179 76q84 0 148.5 -33.5t100.5 -93.5t36 -137q0 -69 -38.5 -127t-104 -92t-142.5 -34q-85 0 -151.5 41.5t-103.5 107.5q-23 42 -29 94t-6 125q0 117 34 211t107 150t185 56q111 0 208 -57l-55 -95
q-34 19 -74 30.5zM490 349.5q-46 43.5 -130 43.5q-81 0 -125.5 -44t-44.5 -113q0 -41 23 -73.5t62 -51.5t85 -19q48 0 88.5 19t64 52t23.5 73q0 70 -46 113.5z" />
    <glyph glyph-name="seven" unicode="7" horiz-adv-x="663" 
d="M146 0l333 636h-419v110h543v-108l-327 -638h-130z" />
    <glyph glyph-name="eight" unicode="8" horiz-adv-x="719" 
d="M149.5 664.5q32.5 47.5 88 75.5t121.5 28q65 0 121 -28t88.5 -75.5t32.5 -103.5q0 -42 -19 -79.5t-53 -66.5q55 -33 87.5 -84t32.5 -110q0 -65 -39.5 -119.5t-106 -86.5t-144.5 -32t-144.5 32t-105.5 86.5t-39 119.5q0 59 32 110t87 84q-34 29 -53 66.5t-19 79.5
q0 56 32.5 103.5zM265 490.5q39 -29.5 94 -29.5q37 0 67.5 14t48 37t17.5 49q0 41 -39 69t-94 28q-56 0 -94.5 -28t-38.5 -69t39 -70.5zM204 155.5q24 -29.5 65 -46.5t90 -17t90.5 17t65.5 46.5t24 65.5t-24.5 67t-65.5 49.5t-90 18.5t-90 -18t-65 -49.5t-24 -67.5t24 -65.5
z" />
    <glyph glyph-name="nine" unicode="9" horiz-adv-x="715" 
d="M240 103.5q40 -11.5 79 -11.5q90 0 147.5 62.5t67.5 171.5q-78 -76 -179 -76q-84 0 -148.5 33.5t-100.5 93.5t-36 137q0 69 38.5 127.5t104 92.5t142.5 34q85 0 151.5 -42t103.5 -108q23 -42 29 -93.5t6 -125.5q0 -117 -34 -211t-107 -149.5t-185 -55.5q-113 0 -208 56
l55 95q34 -19 74 -30.5zM225 400.5q46 -43.5 130 -43.5q81 0 125.5 44t44.5 113q0 41 -23 73.5t-62 51.5t-85 19q-48 0 -88.5 -19t-64 -52t-23.5 -73q0 -70 46 -113.5z" />
    <glyph glyph-name="colon" unicode=":" 
d="M67 499.5q17 17.5 42 17.5t42.5 -17.5t17.5 -42.5t-17.5 -42t-42.5 -17t-42 17t-17 42t17 42.5zM67 104.5q17 17.5 42 17.5t42.5 -17.5t17.5 -42.5t-17.5 -42t-42.5 -17t-42 17t-17 42t17 42.5z" />
    <glyph glyph-name="semicolon" unicode=";" 
d="M67 499.5q17 17.5 42 17.5t42.5 -17.5t17.5 -42.5t-17.5 -42t-42.5 -17t-42 17t-17 42t17 42.5zM67 104.5q17 17.5 42 17.5q31 0 47.5 -20.5t16.5 -50.5q0 -45 -32 -95.5t-82 -76.5l-23 30q35 27 49.5 48.5t14.5 45.5q-22 3 -36 19.5t-14 39.5q0 25 17 42.5z" />
    <glyph glyph-name="less" unicode="&#x3c;" horiz-adv-x="509" 
d="M70 322l389 254v-130l-277 -173l277 -173v-130l-389 254v98z" />
    <glyph glyph-name="equal" unicode="=" horiz-adv-x="595" 
d="M60 504h475v-93h-475v93zM60 324h475v-93h-475v93z" />
    <glyph glyph-name="greater" unicode="&#x3e;" horiz-adv-x="509" 
d="M50 100l277 173l-277 173v130l389 -254v-98l-389 -254v130z" />
    <glyph glyph-name="question" unicode="?" horiz-adv-x="609" 
d="M159.5 736q61.5 32 147.5 32q92 0 148.5 -34t80 -82.5t23.5 -94.5q0 -60 -17 -100t-55 -72.5t-109 -71.5q-26 -15 -38 -25t-19.5 -31t-7.5 -61h-70l-2 25q-4 34 -4 52q0 44 18 77t67 55q67 30 98 62.5t31 89.5q0 21 -13 44t-45.5 40t-85.5 17q-63 0 -102.5 -22t-84.5 -68
l-70 82q48 54 109.5 86zM238 84.5q17 17.5 42 17.5t42.5 -17.5t17.5 -42.5t-17.5 -41.5t-42.5 -16.5t-42 16.5t-17 41.5t17 42.5z" />
    <glyph glyph-name="at" unicode="@" horiz-adv-x="1020" 
d="M417.5 554.5q40.5 13.5 94.5 13.5q63 0 102.5 -27.5t56 -67.5t16.5 -79v-59q0 -32 17.5 -50t54.5 -18q28 0 51 20.5t37 55.5t14 76q0 76 -47.5 136t-128 93t-174.5 33q-89 0 -169.5 -37.5t-130 -106t-49.5 -157.5q0 -94 48 -164.5t127.5 -108.5t171.5 -38q56 0 95.5 12
t62.5 30l57 -75q-82 -53 -214 -53q-113 0 -214.5 47t-163.5 135t-62 205q0 127 58 217t158.5 135.5t224.5 45.5t223.5 -39t157.5 -118t58 -193q0 -64 -28.5 -117t-73 -84t-89.5 -31q-92 0 -135 47q-12 -21 -44.5 -33.5t-68.5 -12.5q-190 0 -190 124q0 67 46 93t129 26
q17 0 26 -1l26 -1q44 0 47 17q0 17 -23 33t-60 16q-32 0 -54.5 -8t-39.5 -27l-76 40q35 42 75.5 55.5zM433 343q-21 -7 -21 -34q0 -21 23.5 -31t76.5 -10q38 0 71 20t33 82q-29 -20 -87 -20h-18q-57 0 -78 -7z" />
    <glyph glyph-name="A" unicode="A" horiz-adv-x="811" 
d="M422 759l359 -759h-122l-49 109h-227q-64 0 -112 -11.5t-76.5 -28.5t-37.5 -34l-19 -35h-118l323 667l-41 92h120zM398 534l-165 -357q22 19 70 30.5t120 11.5h138z" />
    <glyph glyph-name="B" unicode="B" horiz-adv-x="814" 
d="M707.5 88q-36.5 -46 -95 -67t-124.5 -21h-378v746h378q97 0 158.5 -54t61.5 -150q0 -49 -17.5 -87.5t-49.5 -59.5q43 -20 73 -69.5t30 -121.5q0 -70 -36.5 -116zM283 432q34 6 77 6h128q52 0 81.5 26t29.5 77q0 95 -111 95h-270v-228q31 18 65 24zM499 109q33 0 64.5 12
t52 37t20.5 60q0 60 -42 84.5t-106 24.5h-128q-86 0 -142 -30v-188h281z" />
    <glyph glyph-name="C" unicode="C" horiz-adv-x="816" 
d="M581 634q-57 24 -120 24q-82 0 -149.5 -37t-106 -102.5t-38.5 -147.5q0 -78 41 -142t108.5 -100.5t145.5 -36.5q72 0 134 31t103 86l67 -91q-57 -64 -136.5 -99.5t-168.5 -35.5q-111 0 -203 53t-145 145t-53 203q0 107 55.5 195t148 138.5t198.5 50.5q83 0 157 -31
t130 -87l-70 -82q-41 42 -98 66z" />
    <glyph glyph-name="D" unicode="D" horiz-adv-x="837" 
d="M425 746q99 0 179.5 -50t126.5 -135t46 -185q0 -75 -29.5 -148.5t-81.5 -128.5q-50 -54 -106 -76.5t-132 -22.5h-276v636h-59l-48 110h380zM428 109q70 0 124.5 35.5t84.5 94.5t30 129q0 73 -28.5 134t-83.5 97.5t-129 36.5h-167v-527h169z" />
    <glyph glyph-name="E" unicode="E" horiz-adv-x="744" 
d="M679 109v-109h-569v746h525v-110h-416v-226q31 18 64 23.5t77 5.5h163v-111h-163q-41 0 -75.5 -6t-65.5 -23v-190h460z" />
    <glyph glyph-name="F" unicode="F" horiz-adv-x="695" 
d="M110 0v746h525v-110h-416v-226q31 18 64 23.5t77 5.5h163v-111h-163q-41 0 -75.5 -6t-65.5 -23v-299h-109z" />
    <glyph glyph-name="G" unicode="G" horiz-adv-x="841" 
d="M581 634q-57 24 -120 24q-82 0 -149.5 -37t-106 -102.5t-38.5 -147.5q0 -78 41 -142t108.5 -100.5t145.5 -36.5q55 0 105.5 19t90.5 53v136h-96l-47 108h251v-290q-57 -64 -136.5 -99.5t-168.5 -35.5q-111 0 -203 53t-145 145t-53 203q0 107 55.5 195t148 138.5
t198.5 50.5q83 0 157 -31t130 -87l-70 -82q-41 42 -98 66z" />
    <glyph glyph-name="H" unicode="H" horiz-adv-x="876" 
d="M110 0v746h108v-306q40 20 95 20q25 0 97 -9q111 -13 146 -13q58 0 101 19v289h109v-746h-109v347q-43 -19 -101 -19q-35 0 -146 13q-72 9 -97 9q-55 0 -95 -20v-330h-108z" />
    <glyph glyph-name="I" unicode="I" horiz-adv-x="327" 
d="M110 746h107v-746h-107v746z" />
    <glyph glyph-name="J" unicode="J" horiz-adv-x="675" 
d="M521 117q-44 -70 -110.5 -102t-136.5 -32q-67 0 -137.5 24t-116.5 64l55 96q29 -32 81 -54t119 -22q90 0 134.5 60t47.5 147v338h-159l-48 110h315v-451q0 -108 -44 -178z" />
    <glyph glyph-name="K" unicode="K" horiz-adv-x="825" 
d="M110 0v746h109v-557l379 557h131l-245 -351l134 -201q32 -48 60 -66t56 -18h7l24 1v-111h-39q-40 0 -69.5 7.5t-60 33t-63.5 77.5l-113 181l-201 -299h-109z" />
    <glyph glyph-name="L" unicode="L" horiz-adv-x="653" 
d="M110 746h109v-637h414v-109h-523v746z" />
    <glyph glyph-name="M" unicode="M" horiz-adv-x="986" 
d="M239 513v-513h-107v641l-87 105h141l305 -366l309 366h141l-87 -105v-641h-107v513l-255 -305z" />
    <glyph glyph-name="N" unicode="N" horiz-adv-x="885" 
d="M186 746l479 -570v570h110v-746h-108l-428 513v-513h-107v641l-87 105h141z" />
    <glyph glyph-name="O" unicode="O" horiz-adv-x="923" 
d="M808 175q-55 -89 -147.5 -140.5t-199.5 -51.5q-111 0 -203 53t-145 145t-53 203q0 107 55.5 195t148 138.5t198.5 50.5q109 0 201 -52.5t146 -143.5t54 -200q0 -108 -55 -197zM715 522q-40 64 -107.5 100t-146.5 36q-82 0 -149.5 -37t-106 -102.5t-38.5 -147.5
q0 -78 41 -142t108.5 -100.5t145.5 -36.5q79 0 146.5 38t107 103.5t39.5 144.5q0 80 -40 144z" />
    <glyph glyph-name="P" unicode="P" horiz-adv-x="761" 
d="M110 746h383q100 0 159 -57t59 -156t-59.5 -157.5t-158.5 -58.5h-132q-86 0 -142 -30v-287h-109v746zM493 427q110 0 110 106q0 55 -27.5 79.5t-82.5 24.5h-274v-240q31 18 65 24t77 6h132z" />
    <glyph glyph-name="Q" unicode="Q" horiz-adv-x="939" 
d="M838 237q-25 -64 -71 -117q62 -38 112 -42l-55 -95q-39 4 -71.5 19.5t-71.5 43.5q-98 -63 -220 -63q-111 0 -203 53t-145 145t-53 203q0 107 55.5 195t148 138.5t198.5 50.5q109 0 201 -52.5t146 -143.5t54 -200q0 -71 -25 -135zM562 263.5q29 -15.5 97 -65.5l19 -14
q36 39 56.5 88.5t20.5 105.5q0 80 -40 144t-107.5 100t-146.5 36q-82 0 -149.5 -37t-106 -102.5t-38.5 -147.5q0 -78 41 -142t108.5 -100.5t145.5 -36.5q64 0 122 26q-51 38 -80 52.5t-69 16.5l55 95q43 -3 72 -18.5z" />
    <glyph glyph-name="R" unicode="R" horiz-adv-x="840" 
d="M360 309q-41 0 -75.5 -6t-65.5 -23v-280h-109v746h392q69 0 122 -26t83 -75.5t30 -118.5q0 -84 -45 -138t-127 -75l58 -119q25 -37 40.5 -54t31 -23.5t40.5 -6.5h11l24 1v-111q-58 0 -95.5 6t-73.5 31.5t-63 80.5l-91 191h-87zM283 412.5q33 5.5 77 5.5h142q59 0 93 28
t34 86q0 55 -34.5 80t-92.5 25h-283v-248q31 18 64 23.5z" />
    <glyph glyph-name="S" unicode="S" horiz-adv-x="740" 
d="M646.5 98.5q-43.5 -55.5 -119 -85.5t-170.5 -30q-87 0 -169 40.5t-138 112.5l78 73q97 -117 229 -117q91 0 156 35t65 100q0 53 -30.5 78t-74 30.5t-116.5 5.5q-134 0 -204.5 49t-70.5 144q0 60 35.5 114t98.5 87t141 33q88 0 161.5 -28t138.5 -90l-68 -80
q-61 49 -111 68.5t-121 19.5q-41 0 -76.5 -17t-56.5 -45.5t-21 -60.5q0 -86 159 -86q127 0 199 -25.5t100.5 -73.5t28.5 -123q0 -73 -43.5 -128.5z" />
    <glyph glyph-name="T" unicode="T" horiz-adv-x="695" 
d="M402 0h-106v636h-266v110h635v-110h-263v-636z" />
    <glyph glyph-name="U" unicode="U" horiz-adv-x="870" 
d="M188.5 64q-88.5 81 -88.5 226v456h108v-456q0 -96 59 -147t168 -51t168 51t59 147v456h108v-456q0 -145 -88.5 -226t-246.5 -81t-246.5 81z" />
    <glyph glyph-name="V" unicode="V" horiz-adv-x="810" 
d="M338 0l-308 746h118l255 -624l257 624h120l-313 -746h-129z" />
    <glyph glyph-name="W" unicode="W" horiz-adv-x="1081" 
d="M808 0h-118l-144 441l-140 -441h-118l-253 746h112l198 -558l140 440l-38 118h112l188 -558l184 558h115z" />
    <glyph glyph-name="X" unicode="X" horiz-adv-x="823" 
d="M416 314l-237 -314h-139l306 405l-246 341h132l184 -249l187 249h135l-253 -341l298 -405h-138z" />
    <glyph glyph-name="Y" unicode="Y" horiz-adv-x="714" 
d="M478 574q54 86 86 172h125q-96 -225 -278 -423v-323h-108v323q-182 198 -278 423h125q32 -86 86 -172t121 -156q67 70 121 156z" />
    <glyph glyph-name="Z" unicode="Z" horiz-adv-x="707" 
d="M50 110l420 526h-397v110h547v-106l-434 -531h471v-109h-607v110z" />
    <glyph glyph-name="bracketleft" unicode="[" horiz-adv-x="527" 
d="M319 808h178v-80h-80v-720h80v-77h-178v877z" />
    <glyph glyph-name="backslash" unicode="\" horiz-adv-x="630" 
d="M163 745l416 -773h-122l-418 773h124z" />
    <glyph glyph-name="bracketright" unicode="]" horiz-adv-x="258" 
d="M30 8h80v720h-80v80h178v-877h-178v77z" />
    <glyph glyph-name="asciicircum" unicode="^" horiz-adv-x="889" 
d="M445 660l-126 -225h-106l187 316h89l187 -316h-106z" />
    <glyph glyph-name="underscore" unicode="_" horiz-adv-x="700" 
d="M0 -35h700v-89h-700v89z" />
    <glyph glyph-name="quoteleft" unicode="&#x2018;" horiz-adv-x="239" 
d="M160 554.5q-17 -17.5 -42 -17.5q-31 0 -47.5 20.5t-16.5 50.5q0 46 32 96.5t82 76.5l23 -30q-35 -27 -49.5 -48.5t-14.5 -46.5q22 -3 36 -19.5t14 -39.5q0 -25 -17 -42.5z" />
    <glyph glyph-name="a" unicode="a" horiz-adv-x="675" 
d="M355 530l280 -530h-113l-41 78h-62q-59 0 -120 -12.5t-105 -30t-53 -29.5l-3 -6h-108l248 465l-34 65h111zM432 172l-101 192l-123 -237q34 18 86.5 31.5t123.5 13.5h14z" />
    <glyph glyph-name="b" unicode="b" horiz-adv-x="702" 
d="M573 43q-49 -43 -135 -43h-318v518h318q42 0 78 -18.5t57.5 -52t21.5 -75.5q0 -58 -34 -89q29 -17 45 -49.5t16 -71.5q0 -76 -49 -119zM293 321q39 6 92 6h53q52 0 52 45q0 21 -14 32t-38 11h-215v-118q31 18 70 24zM438 104q37 0 59 13t22 47q0 29 -19.5 43.5
t-61.5 14.5h-53q-69 0 -98 -5.5t-64 -24.5v-88h215z" />
    <glyph glyph-name="c" unicode="c" horiz-adv-x="648" 
d="M490.5 3q-55.5 -19 -115.5 -19q-80 0 -150 33.5t-112.5 96.5t-42.5 147t43 146.5t113.5 95t149.5 32.5q58 0 112 -16.5t96 -48.5l-69 -80q-29 20 -65.5 30.5t-73.5 10.5q-52 0 -97 -19t-72.5 -58t-27.5 -95t28 -94.5t73 -57.5t97 -19q41 0 81 14.5t70 41.5l60 -86
q-42 -36 -97.5 -55z" />
    <glyph glyph-name="d" unicode="d" horiz-adv-x="708" 
d="M376 518q120 0 191 -67t71 -188q0 -80 -32.5 -139.5t-92 -91.5t-137.5 -32h-211v415h-64l-46 103h321zM273 104h103q75 0 116 41t41 116t-40.5 114.5t-116.5 39.5h-103v-311z" />
    <glyph glyph-name="e" unicode="e" horiz-adv-x="622" 
d="M547 104v-104h-427v518h408v-103h-306v-126q31 18 70 24t92 6h76v-103h-76q-69 0 -98 -5.5t-64 -24.5v-82h325z" />
    <glyph glyph-name="f" unicode="f" horiz-adv-x="578" 
d="M120 0v518h388v-103h-286v-126q31 18 70 24t92 6h56v-103h-56q-69 0 -98 -5.5t-64 -24.5v-186h-102z" />
    <glyph glyph-name="g" unicode="g" horiz-adv-x="673" 
d="M490.5 3q-55.5 -19 -115.5 -19q-80 0 -150 33.5t-112.5 96.5t-42.5 147t43 146.5t113.5 95t149.5 32.5q58 0 112 -16.5t96 -48.5l-69 -80q-29 20 -65.5 30.5t-73.5 10.5q-52 0 -97 -19t-72.5 -58t-27.5 -95t28 -94.5t73 -57.5t97 -19q58 0 109 27v83h-53l-44 97h199v-237
q-42 -36 -97.5 -55z" />
    <glyph glyph-name="h" unicode="h" horiz-adv-x="726" 
d="M120 0v518h102v-207q27 13 61 13q25 0 71 -7q56 -8 85 -8q38 0 65 13v196h102v-518h-102v217q-26 -13 -61 -13q-22 0 -47.5 3t-32.5 4q-45 7 -76 7q-37 0 -65 -12v-206h-102z" />
    <glyph glyph-name="i" unicode="i" horiz-adv-x="342" 
d="M120 518h102v-518h-102v518z" />
    <glyph glyph-name="j" unicode="j" horiz-adv-x="545" 
d="M194 88q54 0 91.5 26.5t37.5 79.5v221h-124l-46 103h272v-324q0 -68 -31.5 -115t-86 -71t-121.5 -24q-35 0 -83 11.5t-73 27.5l54 94q31 -29 110 -29z" />
    <glyph glyph-name="k" unicode="k" horiz-adv-x="698" 
d="M120 0v518h109v-332l239 332h132l-171 -233l76 -128q21 -29 41.5 -37.5t45.5 -8.5h36v-111h-45q-31 0 -52.5 5.5t-45.5 23t-53 53.5l-72 118l-131 -200h-109z" />
    <glyph glyph-name="l" unicode="l" horiz-adv-x="532" 
d="M120 518h107v-414h275v-104h-382v518z" />
    <glyph glyph-name="m" unicode="m" horiz-adv-x="804" 
d="M698 0h-113v303l-183 -244l-183 244v-303h-113v435l-51 83h126l221 -293l221 293h126l-51 -83v-435z" />
    <glyph glyph-name="n" unicode="n" horiz-adv-x="720" 
d="M497 158v360h103v-518h-103l-288 337v-337h-103v441l-51 77h129z" />
    <glyph glyph-name="o" unicode="o" horiz-adv-x="752" 
d="M639 115.5q-43 -63.5 -113.5 -97.5t-150.5 -34t-150 33.5t-112.5 96.5t-42.5 147t43 146.5t113.5 95t149.5 32.5q81 0 150.5 -31t112.5 -92.5t43 -147.5q0 -85 -43 -148.5zM546 355.5q-28 37.5 -73 55.5t-97 18t-97.5 -18.5t-73 -57t-27.5 -94.5t28 -94t73.5 -57
t97.5 -19q50 0 95.5 20.5t73.5 60t28 93.5q0 55 -28 92.5z" />
    <glyph glyph-name="p" unicode="p" horiz-adv-x="678" 
d="M120 518h329q76 0 122.5 -45t46.5 -119q0 -77 -50 -122t-137 -45h-46q-69 0 -98.5 -5.5t-64.5 -24.5v-157h-102v518zM292.5 284q39.5 6 92.5 6h46q42 0 62 13t20 52q0 35 -22 47.5t-60 12.5h-209v-155q31 18 70.5 24z" />
    <glyph glyph-name="q" unicode="q" horiz-adv-x="752" 
d="M627 98q30 -16 55 -17l-53 -90q-23 2 -42.5 11t-43.5 25q-80 -43 -168 -43q-80 0 -150 33.5t-112.5 96.5t-42.5 147t43 146.5t113.5 95t149.5 32.5q81 0 150.5 -31t112.5 -92.5t43 -147.5q0 -95 -55 -166zM483.5 198.5q22.5 -12.5 58.5 -40.5q39 46 39 105
q0 55 -29.5 92.5t-76.5 55.5t-99 18t-97.5 -18.5t-73 -57t-27.5 -94.5t28 -94t73.5 -57t97.5 -19q36 0 67 10q-2 0 -2 1q-35 19 -62 23l53 91q28 -3 50.5 -15.5z" />
    <glyph glyph-name="r" unicode="r" horiz-adv-x="733" 
d="M569 120q22 -9 48 -9h36v-111h-45q-33 0 -56.5 5t-47.5 22.5t-47 54.5l-80 130h-7q-57 0 -84 -6t-61 -24v-182h-105v518h334q47 0 84 -20t58 -56t21 -80q0 -115 -119 -151l32 -54q17 -28 39 -37zM495.5 328q16.5 13 16.5 37q0 31 -20.5 40.5t-55.5 9.5h-211v-130
q55 30 145 30h84q25 0 41.5 13z" />
    <glyph glyph-name="s" unicode="s" horiz-adv-x="617" 
d="M294 435q-39 0 -72 -17t-33 -39q0 -18 8 -29t32.5 -17t72.5 -6q104 0 160.5 -21t75.5 -55.5t19 -82.5q0 -90 -73 -137t-189 -47q-67 0 -129.5 29.5t-105.5 80.5l74 75q4 -5 27 -30t57.5 -40t76.5 -15q72 0 116 22t44 62q0 34 -37 45.5t-123 11.5q-100 0 -157 36.5
t-57 117.5q0 46 29 81.5t78 55t107 19.5q62 0 115.5 -14t106.5 -51l-69 -80q-55 45 -154 45z" />
    <glyph glyph-name="t" unicode="t" horiz-adv-x="566" 
d="M331 0h-103v415h-188v103h486v-103h-195v-415z" />
    <glyph glyph-name="u" unicode="u" horiz-adv-x="720" 
d="M177.5 38.5q-67.5 54.5 -67.5 164.5v315h103v-315q0 -63 38 -89t109 -26t109 26t38 89v315h103v-315q0 -110 -67.5 -164.5t-181.5 -54.5h-2q-114 0 -181.5 54.5z" />
    <glyph glyph-name="v" unicode="v" horiz-adv-x="667" 
d="M265 0l-225 518h116l175 -413l179 413h117l-229 -518h-133z" />
    <glyph glyph-name="w" unicode="w" horiz-adv-x="845" 
d="M433 518l118 -380l139 380h110l-182 -518h-139l-65 205l-53 -205h-137l-179 518h111l134 -380l68 245l-42 135h117z" />
    <glyph glyph-name="x" unicode="x" horiz-adv-x="676" 
d="M50 0l220 274l-191 244h141l122 -156l125 156h137l-194 -243l216 -275h-140l-147 186l-148 -186h-141z" />
    <glyph glyph-name="y" unicode="y" horiz-adv-x="604" 
d="M355 0h-102v209l-218 309h130l138 -204l142 204h124l-214 -309v-209z" />
    <glyph glyph-name="z" unicode="z" horiz-adv-x="549" 
d="M60 104l273 311h-263v103h399v-103l-273 -311h293v-104h-429v104z" />
    <glyph glyph-name="braceleft" unicode="{" horiz-adv-x="340" 
d="M205.5 -61.5q-38.5 13.5 -55 42t-16.5 77.5v213q0 31 -5.5 46.5t-23.5 22.5t-55 7v59q35 0 52.5 5.5t24 21.5t6.5 48v206q0 49 17 78t55.5 42.5t104.5 13.5v-66q-50 0 -67.5 -13.5t-17.5 -52.5v-193q0 -47 -14.5 -77t-45.5 -44q32 -14 45.5 -42.5t13.5 -75.5v-201
q0 -38 18 -51.5t68 -13.5v-66q-66 0 -104.5 13.5z" />
    <glyph glyph-name="bar" unicode="|" horiz-adv-x="372" 
d="M140 750h92v-999h-92v999z" />
    <glyph glyph-name="braceright" unicode="}" horiz-adv-x="340" 
d="M98 4.5q18 13.5 18 51.5v201q0 47 13.5 75.5t45.5 42.5q-31 14 -45.5 44t-14.5 77v193q0 39 -17.5 52.5t-67.5 13.5v66q66 0 104.5 -13.5t55.5 -42.5t17 -78v-206q0 -32 6.5 -48t24 -21.5t52.5 -5.5v-59q-37 0 -55 -7t-23.5 -22.5t-5.5 -46.5v-213q0 -49 -16.5 -77.5
t-55 -42t-104.5 -13.5v66q50 0 68 13.5z" />
    <glyph glyph-name="asciitilde" unicode="~" horiz-adv-x="661" 
d="M522.5 222q-33.5 -23 -79.5 -23q-34 0 -61.5 8.5t-71.5 26.5q-32 14 -51.5 20.5t-38.5 6.5q-20 0 -46.5 -20t-43.5 -41l-60 72q28 34 69.5 60t75.5 26q29 0 55 -8t64 -23q37 -15 58.5 -21.5t44.5 -6.5q30 0 51.5 15t42.5 42l60 -72q-35 -39 -68.5 -62z" />
    <glyph glyph-name="section" unicode="&#xa7;" horiz-adv-x="604" 
d="M213 74q36 -12 75 -12q65 0 103 19.5t38 61.5q0 25 -20 41t-55 29l-153 58q-124 46 -124 154q0 28 15.5 55.5t37.5 44.5q-34 37 -34 91q0 53 31 87.5t77.5 50t95.5 15.5q55 0 114 -20.5t99 -58.5l-76 -53q-32 21 -68 32.5t-67 11.5q-53 0 -80 -14t-27 -48q0 -22 18 -39
t46 -28l153 -57q53 -20 87.5 -58t34.5 -89q0 -54 -55 -95q47 -45 47 -109q0 -79 -65.5 -123t-173.5 -44q-56 0 -114.5 18.5t-102.5 56.5l70 60q37 -26 73 -38zM419.5 381.5q-14.5 14.5 -45.5 27.5l-170 69q-30 -21 -30 -50q0 -26 20.5 -43t56.5 -31l153 -58q14 8 22 21t8 27
q0 23 -14.5 37.5z" />
    <glyph glyph-name="currency" unicode="&#xa4;" horiz-adv-x="833" 
 />
    <glyph glyph-name="quotesingle" unicode="'" horiz-adv-x="234" 
d="M82 518l-22 241h114l-23 -241h-69z" />
    <glyph glyph-name="quotedblleft" unicode="&#x201c;" horiz-adv-x="397" 
d="M162 561.5q-17 -17.5 -42 -17.5q-31 0 -47.5 20.5t-16.5 50.5q0 46 32 96.5t82 76.5l23 -30q-35 -27 -49.5 -48.5t-14.5 -46.5q22 -3 36 -19.5t14 -39.5q0 -25 -17 -42.5zM322 561.5q-17 -17.5 -42 -17.5q-31 0 -47.5 20.5t-16.5 50.5q0 46 32 96.5t82 76.5l23 -30
q-35 -27 -49.5 -48.5t-14.5 -46.5q22 -3 36 -19.5t14 -39.5q0 -25 -17 -42.5z" />
    <glyph glyph-name="guillemotleft" unicode="&#xab;" horiz-adv-x="606" 
d="M70 263l134 193h100l-115 -193l115 -196h-100zM302 263l134 193h100l-115 -193l115 -196h-100z" />
    <glyph glyph-name="guilsinglleft" unicode="&#x2039;" horiz-adv-x="374" 
d="M204 456h100l-115 -193l115 -196h-100l-134 196z" />
    <glyph glyph-name="guilsinglright" unicode="&#x203a;" horiz-adv-x="374" 
d="M70 67l115 196l-115 193h100l134 -193l-134 -196h-100z" />
    <glyph glyph-name="endash" unicode="&#x2013;" horiz-adv-x="389" 
d="M0 337h389v-95h-389v95z" />
    <glyph glyph-name="dagger" unicode="&#x2020;" horiz-adv-x="593" 
d="M346 0h-99v448h-189v94h189v203h99v-203h188v-94h-188v-448z" />
    <glyph glyph-name="daggerdbl" unicode="&#x2021;" horiz-adv-x="593" 
d="M346 0h-99v191h-189v94h189v179h-189v94h189v187h99v-187h188v-94h-188v-179h188v-94h-188v-191z" />
    <glyph glyph-name="periodcentered" unicode="&#xb7;" horiz-adv-x="370" 
d="M234.5 334.5q-20.5 -21.5 -49.5 -21.5q-30 0 -50 21t-20 51q0 29 20.5 50.5t49.5 21.5q30 0 50 -21t20 -51q0 -29 -20.5 -50.5z" />
    <glyph glyph-name="paragraph" unicode="&#xb6;" horiz-adv-x="752" 
d="M682 0h-103v650h-81v-650h-106v300h-50q-122 0 -197 51.5t-75 171.5q0 123 75 175t197 52h340v-750zM221 622q-42 -28 -42 -97t42 -97t121 -28h50v250h-50q-79 0 -121 -28z" />
    <glyph glyph-name="bullet" unicode="&#x2022;" horiz-adv-x="382" 
d="M105.5 496.5q35.5 35.5 85.5 35.5t85.5 -35.5t35.5 -85.5t-35.5 -85.5t-85.5 -35.5t-85.5 35.5t-35.5 85.5t35.5 85.5z" />
    <glyph glyph-name="quotesinglbase" unicode="&#x201a;" 
d="M67 104.5q17 17.5 42 17.5q31 0 47.5 -20.5t16.5 -50.5q0 -45 -32 -95.5t-82 -76.5l-23 30q35 27 49.5 48.5t14.5 45.5q-22 3 -36 19.5t-14 39.5q0 25 17 42.5z" />
    <glyph glyph-name="quotedblbase" unicode="&#x201e;" horiz-adv-x="377" 
d="M67 104.5q17 17.5 42 17.5q31 0 47.5 -20.5t16.5 -50.5q0 -45 -32 -95.5t-82 -76.5l-23 30q35 27 49.5 48.5t14.5 45.5q-22 3 -36 19.5t-14 39.5q0 25 17 42.5zM227 104.5q17 17.5 42 17.5q31 0 47.5 -20.5t16.5 -50.5q0 -45 -32 -95.5t-82 -76.5l-23 30q35 27 49.5 48.5
t14.5 45.5q-22 3 -36 19.5t-14 39.5q0 25 17 42.5z" />
    <glyph glyph-name="quotedblright" unicode="&#x201d;" horiz-adv-x="397" 
d="M77 741.5q17 17.5 42 17.5q31 0 47.5 -20.5t16.5 -50.5q0 -46 -32 -96.5t-82 -76.5l-23 30q35 27 49.5 48.5t14.5 46.5q-22 3 -36 19.5t-14 39.5q0 25 17 42.5zM237 741.5q17 17.5 42 17.5q31 0 47.5 -20.5t16.5 -50.5q0 -46 -32 -96.5t-82 -76.5l-23 30q35 27 49.5 48.5
t14.5 46.5q-22 3 -36 19.5t-14 39.5q0 25 17 42.5z" />
    <glyph glyph-name="guillemotright" unicode="&#xbb;" horiz-adv-x="606" 
d="M70 67l116 196l-116 193h100l135 -193l-135 -196h-100zM302 67l115 196l-115 193h100l134 -193l-134 -196h-100z" />
    <glyph glyph-name="ellipsis" unicode="&#x2026;" horiz-adv-x="575" 
d="M67 104.5q17 17.5 42 17.5t42.5 -17.5t17.5 -42.5t-17.5 -42t-42.5 -17t-42 17t-17 42t17 42.5zM245 104.5q17 17.5 42 17.5t42.5 -17.5t17.5 -42.5t-17.5 -42t-42.5 -17t-42 17t-17 42t17 42.5zM423 104.5q17 17.5 42 17.5t42.5 -17.5t17.5 -42.5t-17.5 -42t-42.5 -17
t-42 17t-17 42t17 42.5z" />
    <glyph glyph-name="perthousand" unicode="&#x2030;" horiz-adv-x="1522" 
d="M188 -39l541 757h117l-542 -757h-116zM458 408.5q-31 -45.5 -82 -70t-108 -24.5t-107 24t-80.5 69.5t-30.5 105.5q0 61 31 106t81.5 68.5t107.5 23.5t107.5 -22.5t81 -66.5t30.5 -107q0 -61 -31 -106.5zM361.5 597q-38.5 28 -91.5 28q-54 0 -92.5 -29.5t-38.5 -83.5
t38.5 -83t92.5 -29q52 0 91 31.5t39 82.5q0 55 -38.5 83zM1446 56.5q-31 -45.5 -81.5 -69.5t-108.5 -24q-57 0 -107 24t-80.5 69t-30.5 105q0 61 31 106t81.5 68.5t107.5 23.5t107.5 -22.5t81 -66.5t30.5 -107q0 -61 -31 -106.5zM948 53.5q-31 -45.5 -81.5 -69.5t-108.5 -24
q-57 0 -107 24t-80.5 69t-30.5 105q0 61 31 106t81.5 68.5t107.5 23.5t107.5 -22.5t81 -66.5t30.5 -107q0 -61 -31 -106.5zM1349.5 245q-38.5 28 -91.5 28q-54 0 -92.5 -29.5t-38.5 -83.5t38.5 -83t92.5 -29q52 0 91 31.5t39 82.5q0 55 -38.5 83zM851.5 242
q-38.5 28 -91.5 28q-54 0 -92.5 -29.5t-38.5 -83.5t38.5 -83t92.5 -29q52 0 91 31.5t39 82.5q0 55 -38.5 83z" />
    <glyph glyph-name="grave" unicode="`" horiz-adv-x="297" 
d="M167 935l80 -122h-91l-106 122h117z" />
    <glyph glyph-name="emdash" unicode="&#x2014;" horiz-adv-x="1018" 
d="M0 337h1018v-95h-1018v95z" />
    <glyph glyph-name="logicalnot" unicode="&#xac;" horiz-adv-x="833" 
 />
    <glyph glyph-name="uni00B5" unicode="&#xb5;" horiz-adv-x="700" 
d="M503 54q-8 -11 -31.5 -28t-56.5 -29.5t-67 -12.5q-49 0 -91 20.5t-54 45.5v-202h-103v670h103v-315q0 -50 20.5 -75t51 -32.5t75.5 -7.5q71 0 109.5 25.5t38.5 89.5v315h102v-518h-97v54z" />
    <glyph glyph-name="trademark" unicode="&#x2122;" horiz-adv-x="851" 
d="M239 455h-60v233h-109v58h283v-58h-114v-233zM750 455h-65v171l-106 -137l-106 137v-171h-65v244l-31 47h72l130 -164l129 164h73l-31 -47v-244z" />
    <glyph glyph-name="plusminus" unicode="&#xb1;" horiz-adv-x="615" 
d="M354 59h-93v160h-191v93h191v156h93v-156h191v-93h-191v-160zM70 0h475v-93h-475v93z" />
    <glyph glyph-name="brokenbar" unicode="&#xa6;" horiz-adv-x="833" 
 />
    <glyph glyph-name="degree" unicode="&#xb0;" horiz-adv-x="387" 
d="M281 557q-36 -36 -87 -36q-52 0 -88 36t-36 87q0 52 36 88t87 36q52 0 88 -36t36 -87q0 -52 -36 -88zM234 684.5q-17 17.5 -41 17.5t-40.5 -17t-16.5 -41t17 -40.5t40 -16.5q24 0 41 16.5t17 40.5q0 23 -17 40.5z" />
    <glyph glyph-name="registered" unicode="&#xae;" horiz-adv-x="919" 
d="M796.5 177q-52.5 -89 -141.5 -141t-195 -52t-195.5 52t-142 141t-52.5 195t52.5 195t141.5 141.5t195 52.5t195.5 -52.5t142 -141.5t52.5 -195t-52.5 -195zM729 528q-42 71 -113 113t-156 42t-156.5 -42t-113.5 -113t-42 -156t42 -156.5t113.5 -113.5t155.5 -42
q85 0 156.5 42t113.5 113.5t42 156.5t-42 156zM646 266h27v-84h-34q-39 0 -65 11t-50 51l-60 99h-6q-43 0 -63.5 -4.5t-46.5 -18.5v-138h-79v393h253q54 0 89 -33.5t35 -84.5q0 -86 -91 -115l25 -41q21 -35 66 -35zM553.5 431q12.5 10 12.5 28q0 24 -15.5 31t-42.5 7h-160
v-99q42 23 110 23h64q19 0 31.5 10z" />
    <glyph glyph-name="copyright" unicode="&#xa9;" horiz-adv-x="919" 
d="M796.5 177q-52.5 -89 -141.5 -141t-195 -52t-195.5 52t-142 141t-52.5 195t52.5 195t141.5 141.5t195 52.5t195.5 -52.5t142 -141.5t52.5 -195t-52.5 -195zM729 528q-42 71 -113 113t-156 42t-156.5 -42t-113.5 -113t-42 -156t42 -156.5t113.5 -113.5t155.5 -42
q85 0 156.5 42t113.5 113.5t42 156.5t-42 156zM558.5 177.5q-42.5 -14.5 -88.5 -14.5q-62 0 -115.5 26t-86 74t-32.5 113t33 113t87 73t115 25q44 0 85.5 -13t74.5 -37l-53 -61q-22 15 -50 23t-57 8q-63 0 -107.5 -34t-44.5 -98q0 -63 45.5 -97.5t107.5 -34.5q31 0 62 11.5
t54 31.5l46 -66q-33 -28 -75.5 -42.5z" />
    <glyph glyph-name="Euro" unicode="&#x20ac;" horiz-adv-x="855" 
d="M610 393h-403q-1 -7 -1 -22q0 -24 3 -45h388l-14 -72h-351q36 -74 109.5 -118t159.5 -44q72 0 134 31t103 86l67 -91q-57 -64 -136.5 -99.5t-168.5 -35.5t-166 34t-133 95.5t-82 141.5h-78l14 72h48q-4 25 -4 58v9h-59l15 73h53q20 87 77.5 156t140 107.5t175.5 38.5
q83 0 157 -31t130 -87l-70 -82q-41 42 -98 66t-120 24q-99 0 -175 -52.5t-105 -139.5h404z" />
    <glyph glyph-name="uni00AD" unicode="&#xad;" horiz-adv-x="389" 
d="M0 337h389v-95h-389v95z" />
    <glyph glyph-name="uni0413" unicode="&#x413;" horiz-adv-x="690" 
d="M110 0v746h525v-110h-416v-636h-109z" />
    <glyph glyph-name="uni0414" unicode="&#x414;" horiz-adv-x="876" 
d="M717 0h-578v-115h-109v224h110q85 104 138.5 235.5t79.5 291.5h-82l-46 110h531v-637h65v-224h-109v115zM652 636h-185q-15 -126 -68 -274.5t-126 -252.5h379v527z" />
    <glyph glyph-name="uni0416" unicode="&#x416;" horiz-adv-x="1206" 
d="M657 746v-307q71 2 122 29l189 278h131l-245 -351l134 -201q34 -51 63 -67.5t60 -16.5l24 1l1 -111h-39q-41 0 -70 7.5t-60 33t-64 77.5l-143 229q-46 -19 -103 -19v-328h-109v328q-57 0 -102 19l-144 -229q-33 -52 -65 -77.5t-62 -33t-70 -7.5h-35l1 111l24 -1
q31 0 60 16.5t63 67.5l134 201l-245 351h131l188 -278q51 -27 122 -29v307h109z" />
    <glyph glyph-name="uni0417" unicode="&#x417;" horiz-adv-x="731" 
d="M171.5 714.5q34.5 24.5 82 39t113.5 14.5q95 0 155.5 -37t86.5 -90t26 -103t-15.5 -83t-51.5 -58q51 -30 77 -72.5t26 -106.5t-31 -117t-99 -85.5t-174 -32.5q-90 0 -181.5 37t-145.5 98l67 91q40 -53 113 -85t147 -32q102 0 149 35.5t47 91.5q0 60 -42 84.5t-106 24.5
h-124v111h124q52 0 81.5 26t29.5 77q0 38 -25 64.5t-61.5 39t-72.5 12.5q-67 0 -110 -21t-90 -69l-70 82q40 40 74.5 64.5z" />
    <glyph glyph-name="uni0418" unicode="&#x418;" horiz-adv-x="875" 
d="M765 746v-746h-108v575l-439 -575h-108v746h108v-575l439 575h108z" />
    <glyph glyph-name="uni0419" unicode="&#x419;" horiz-adv-x="875" 
d="M503.5 893q16.5 22 16.5 53h115q-7 -58 -51.5 -101.5t-140.5 -43.5t-140.5 43.5t-51.5 101.5h115q0 -31 16.5 -53t60.5 -22t60.5 22zM218 746h-108v-746h108l439 575v-575h108v746h-108l-439 -575v575z" />
    <glyph glyph-name="uni041A" unicode="&#x41a;" horiz-adv-x="835" 
d="M110 0v746h109v-307h50q87 0 140 29l189 278h131l-245 -351l134 -201q34 -51 63 -67.5t60 -16.5l24 1v-111h-39q-40 0 -69.5 7.5t-60 33t-63.5 77.5l-143 229q-44 -19 -108 -19h-63v-328h-109z" />
    <glyph glyph-name="uni041B" unicode="&#x41b;" horiz-adv-x="837" 
d="M618 636h-215q-38 -393 -184 -566q-59 -70 -169 -70h-20v109h20q33 0 63 18t67 77q54 87 78.5 189t39.5 243h-86l-47 110h562v-746h-109v636z" />
    <glyph glyph-name="uni041F" unicode="&#x41f;" horiz-adv-x="836" 
d="M617 636h-399v-636h-108v746h616v-746h-109v636z" />
    <glyph glyph-name="uni0423" unicode="&#x423;" horiz-adv-x="770" 
d="M208.5 528q41.5 -94 89 -161.5t115.5 -148.5q59 99 113 244.5t89 283.5h125q-50 -187 -115.5 -349.5t-158.5 -298.5q-42 -61 -89.5 -84.5t-106.5 -23.5q-39 0 -86 14t-67 34l42 95q25 -20 49 -28.5t62 -8.5q56 0 79 41q-116 106 -200 254t-129 355h119q28 -124 69.5 -218
z" />
    <glyph glyph-name="uni0424" unicode="&#x424;" horiz-adv-x="1141" 
d="M698 143q-37 -7 -69 -24v-119h-107v119q-35 21 -69.5 26t-87.5 5q-80 0 -150.5 39.5t-112.5 107.5t-42 147q0 80 42 147.5t112.5 107.5t150.5 40h157v37h107v-37h157q80 0 148 -39.5t107.5 -107.5t39.5 -148t-39.5 -147.5t-107.5 -107t-148 -39.5q-51 0 -88 -7z
M455.5 253q35.5 -6 66.5 -24v401h-157q-51 0 -93.5 -25t-67.5 -67.5t-25 -93.5q0 -50 25 -92.5t67.5 -67.5t93.5 -25q55 0 90.5 -6zM879.5 284q42.5 25 67.5 67.5t25 92.5q0 51 -25 93.5t-67.5 67.5t-93.5 25h-157v-401q32 19 69 24.5t88 5.5t93.5 25z" />
    <glyph glyph-name="uni0426" unicode="&#x426;" horiz-adv-x="921" 
d="M751 -157h-121l70 157h-590v746h108v-637h399v637h109v-637h145z" />
    <glyph glyph-name="uni0427" unicode="&#x427;" horiz-adv-x="751" 
d="M641 0h-109v287q-43 -21 -86.5 -31.5t-103.5 -10.5q-149 0 -220.5 63.5t-71.5 214.5q0 36 5.5 107.5t14.5 115.5h109q-20 -128 -20 -253q0 -77 47 -109t140 -32q39 0 79 10.5t107 34.5v349h109v-746z" />
    <glyph glyph-name="uni0428" unicode="&#x428;" horiz-adv-x="1145" 
d="M110 746h109v-637h299v607h109v-607h299v637h109v-746h-925v746z" />
    <glyph glyph-name="uni0429" unicode="&#x429;" horiz-adv-x="1231" 
d="M1061 -157h-121l70 157h-900v746h109v-637h299v607h109v-607h299v637h109v-637h146z" />
    <glyph glyph-name="uni042A" unicode="&#x42a;" horiz-adv-x="913" 
d="M229 636h-179v110h287v-278q56 -30 142 -30h128q123 0 192 -55.5t69 -164.5q0 -121 -76 -169.5t-185 -48.5h-378v636zM714 134.5q41 25.5 41 83.5q0 60 -42 84.5t-106 24.5h-128q-43 0 -77 6t-65 24v-248h281q55 0 96 25.5z" />
    <glyph glyph-name="uni042B" unicode="&#x42b;" horiz-adv-x="1031" 
d="M360 438h98q123 0 192 -55.5t69 -164.5q0 -121 -76 -169.5t-185 -48.5h-348v746h108v-278q56 -30 142 -30zM814 746h107v-746h-107v746zM565 134.5q41 25.5 41 83.5q0 60 -42 84.5t-106 24.5h-98q-43 0 -77 6t-65 24v-248h251q55 0 96 25.5z" />
    <glyph glyph-name="uni042C" unicode="&#x42c;" horiz-adv-x="794" 
d="M110 746h108v-278q56 -30 142 -30h128q123 0 192 -55.5t69 -164.5q0 -121 -76 -169.5t-185 -48.5h-378v746zM283 333q-34 6 -65 24v-248h281q55 0 96 25.5t41 83.5q0 60 -42 84.5t-106 24.5h-128q-43 0 -77 6z" />
    <glyph glyph-name="uni042D" unicode="&#x42d;" horiz-adv-x="816" 
d="M197 737q74 31 157 31q124 0 215 -49.5t139 -136.5t48 -198t-53 -203t-145 -145t-203 -53q-89 0 -168.5 35.5t-136.5 99.5l67 91q41 -55 103 -86t134 -31q66 0 125.5 27t102 75t58.5 110q-52 26 -134 26h-240v111h240q42 0 76 -6t64 -23q-16 115 -88 180.5t-203 65.5
q-63 0 -120 -24t-98 -66l-70 82q56 56 130 87z" />
    <glyph glyph-name="uni042E" unicode="&#x42e;" horiz-adv-x="1149" 
d="M1037.5 176.5q-51.5 -90.5 -140 -142t-195.5 -51.5q-99 0 -182.5 45.5t-136.5 126t-64 179.5h-101v-334h-108v746h108v-302h103q14 94 69 168t137.5 115t175.5 41q105 0 193.5 -51t140.5 -140.5t52 -198.5q0 -111 -51.5 -201.5zM946.5 522q-38.5 64 -103.5 100t-141 36
q-80 0 -144.5 -35t-101.5 -99t-37 -146q0 -79 39.5 -144.5t105 -103.5t139.5 -38q78 0 142.5 37.5t102 103t37.5 145.5t-38.5 144z" />
    <glyph glyph-name="uni042F" unicode="&#x42f;" horiz-adv-x="837" 
d="M476 306h-65l-119 -188q-33 -52 -65.5 -78t-62.5 -33t-71 -7h-33v110h25q31 0 59.5 16.5t63.5 67.5l80 117q-85 12 -136.5 69.5t-51.5 148.5q0 65 30 114t83.5 76t121.5 27h392v-746h-109v276q-56 30 -142 30zM335 636q-54 0 -90.5 -29t-36.5 -76q0 -58 34 -87t93 -29
h141q43 0 77 -6t65 -24v251h-283z" />
    <glyph glyph-name="uni0431" unicode="&#x431;" horiz-adv-x="682" 
d="M287 332.5q29 -5.5 98 -5.5h53q80 0 132 -43.5t52 -121.5q0 -79 -51.5 -120.5t-132.5 -41.5h-318v518h399v-103h-296v-58q35 -19 64 -24.5zM497 117q22 13 22 47q0 33 -22 45.5t-59 12.5h-53q-53 0 -92 6t-70 24v-148h215q37 0 59 13z" />
    <glyph glyph-name="uni0433" unicode="&#x433;" horiz-adv-x="563" 
d="M222 0h-102v518h378v-103h-276v-415z" />
    <glyph glyph-name="uni0434" unicode="&#x434;" horiz-adv-x="736" 
d="M572 0h-428v-115h-104v219h100q41 50 65 98.5t35 87.5t22 94l6 31h-82l-46 103h471v-414h65v-219h-104v115zM509 415h-133q-22 -102 -49 -181t-65 -130h247v311z" />
    <glyph glyph-name="uni0436" unicode="&#x436;" horiz-adv-x="1019" 
d="M564 518v-210q57 0 79 21l146 189h132l-190 -243l87 -118q37 -52 95 -52h26v-105h-35q-35 0 -57.5 4t-47 21t-50.5 55l-91 132q-35 -13 -94 -13v-199h-109v199q-59 0 -94 13l-91 -132q-26 -38 -50.5 -55t-47 -21t-57.5 -4h-35v105h26q56 0 95 52l87 118l-190 243h132
l146 -189q22 -21 79 -21v210h109z" />
    <glyph glyph-name="uni0437" unicode="&#x437;" horiz-adv-x="614" 
d="M203.5 523q52.5 12 96.5 12q105 0 161.5 -40.5t56.5 -118.5q0 -25 -9 -51t-26 -42q29 -16 45 -50t16 -71q0 -93 -71 -136t-173 -43q-68 0 -138 25.5t-112 67.5l59 89q78 -77 191 -77q66 0 103.5 17t37.5 59q0 60 -81 60h-109v103h109q25 0 38.5 14.5t13.5 34.5
q0 55 -112 55q-25 0 -65.5 -9.5t-72.5 -27.5l-58 89q47 28 99.5 40z" />
    <glyph glyph-name="uni0438" unicode="&#x438;" horiz-adv-x="746" 
d="M626 518v-518h-102v374l-302 -374h-102v518h102v-372l302 372h102z" />
    <glyph glyph-name="uni0439" unicode="&#x439;" horiz-adv-x="746" 
d="M443.5 663q16.5 22 16.5 53h115q-7 -58 -51.5 -101.5t-140.5 -43.5t-140.5 43.5t-51.5 101.5h115q0 -31 16.5 -53t60.5 -22t60.5 22zM222 518h-102v-518h102l302 374v-374h102v518h-102l-302 -372v372z" />
    <glyph glyph-name="uni043A" unicode="&#x43a;" horiz-adv-x="728" 
d="M120 0v518h109v-210h34q28 0 46 4.5t33 16.5l146 189h132l-190 -243l87 -118q21 -29 46 -41t49 -12h36v-104h-45q-33 0 -56 4.5t-48 22.5t-51 55l-91 130q-35 -13 -84 -13h-44v-199h-109z" />
    <glyph glyph-name="uni043B" unicode="&#x43b;" horiz-adv-x="694" 
d="M83 518h491v-518h-109v415h-145q-25 -260 -118 -370q-38 -45 -109 -45h-53v104h27q40 0 76 57q35 56 47.5 109.5t20.5 144.5h-84z" />
    <glyph glyph-name="uni043F" unicode="&#x43f;" horiz-adv-x="726" 
d="M504 415h-282v-415h-102v518h486v-518h-102v415z" />
    <glyph glyph-name="uni0443" unicode="&#x443;" horiz-adv-x="627" 
d="M202 92q27 0 44.5 12t34.5 35q-48 24 -98 82.5t-90.5 136.5t-62.5 160h115q24 -96 74.5 -174t122.5 -124q33 56 70.5 136t63.5 162h111q-43 -127 -103.5 -250.5t-125.5 -201.5q-38 -45 -70.5 -59t-87.5 -14q-32 0 -74.5 16t-75.5 40l57 89q59 -46 95 -46z" />
    <glyph glyph-name="uni0444" unicode="&#x444;" horiz-adv-x="883" 
d="M168 118q-45 26 -71.5 71t-26.5 98q0 54 26.5 99t71.5 71.5t99 26.5h124v51h102v-51h123q54 0 99 -26.5t71.5 -71.5t26.5 -99q0 -53 -26.5 -98t-71.5 -71t-99 -26q-42 0 -72 -5.5t-51 -24.5v-62h-102v62q-21 19 -51 24.5t-72 5.5h-1q-54 0 -99 26zM286 387
q-42 0 -71.5 -29.5t-29.5 -72.5q0 -42 29.5 -70.5t71.5 -28.5q29 0 60 -7t45 -20v228h-105zM670 216q29 28 29 69q0 43 -29.5 72.5t-71.5 29.5h-105v-228q14 13 44 19.5t61 7.5q43 2 72 30z" />
    <glyph glyph-name="uni0446" unicode="&#x446;" horiz-adv-x="766" 
d="M586 -157h-106l70 157h-430v518h101v-409h282v409h102v-409h101z" />
    <glyph glyph-name="uni0447" unicode="&#x447;" horiz-adv-x="646" 
d="M526 0h-102v190q-31 -12 -61.5 -17t-71.5 -5q-113 0 -172 40t-59 133q0 106 20 177h102q-20 -69 -20 -150q0 -55 30 -76.5t102 -21.5q34 0 58.5 5t71.5 19v224h102v-518z" />
    <glyph glyph-name="uni0448" unicode="&#x448;" horiz-adv-x="905" 
d="M785 0h-665v518h101v-409h176v390h107v-390h179v409h102v-518z" />
    <glyph glyph-name="uni0449" unicode="&#x449;" horiz-adv-x="946" 
d="M766 -157h-106l70 157h-610v518h101v-409h176v391h107v-391h179v409h102v-409h101z" />
    <glyph glyph-name="uni044A" unicode="&#x44a;" horiz-adv-x="774" 
d="M384 330.5q29 -5.5 98 -5.5h53q81 0 132.5 -42.5t51.5 -120.5q0 -79 -51.5 -120.5t-132.5 -41.5h-318v415h-157v103h260v-163q35 -19 64 -24.5zM594 117q22 13 22 47q0 33 -22 45.5t-59 12.5h-53q-53 0 -92 6t-70 24v-148h215q37 0 59 13z" />
    <glyph glyph-name="uni044B" unicode="&#x44b;" horiz-adv-x="898" 
d="M287 330.5q29 -5.5 98 -5.5h23q81 0 132.5 -42.5t51.5 -120.5q0 -79 -51.5 -120.5t-132.5 -41.5h-288v518h103v-163q35 -19 64 -24.5zM676 518h102v-518h-102v518zM408 104q37 0 59 13t22 47q0 33 -22 45.5t-59 12.5h-23q-53 0 -92 6t-70 24v-148h185z" />
    <glyph glyph-name="uni044C" unicode="&#x44c;" horiz-adv-x="677" 
d="M287 330.5q29 -5.5 98 -5.5h53q81 0 132.5 -42.5t51.5 -120.5q0 -79 -51.5 -120.5t-132.5 -41.5h-318v518h103v-163q35 -19 64 -24.5zM497 117q22 13 22 47q0 33 -22 45.5t-59 12.5h-53q-53 0 -92 6t-70 24v-148h215q37 0 59 13z" />
    <glyph glyph-name="uni044D" unicode="&#x44d;" horiz-adv-x="648" 
d="M190 102.5q40 -14.5 81 -14.5q63 0 114 27.5t72 79.5q-27 12 -55 16.5t-87 4.5h-93v103h93q47 0 83.5 -5t66.5 -20q-12 66 -67 101.5t-126 35.5q-37 0 -73.5 -10.5t-65.5 -30.5l-69 80q42 32 96 48.5t112 16.5q79 0 149.5 -32.5t113.5 -95t43 -146.5t-42.5 -147
t-112.5 -96.5t-150 -33.5q-60 0 -115.5 19t-97.5 55l60 86q30 -27 70 -41.5z" />
    <glyph glyph-name="uni044E" unicode="&#x44e;" horiz-adv-x="941" 
d="M831.5 115.5q-39.5 -63.5 -104.5 -97.5t-141 -34q-69 0 -129 28t-100.5 80.5t-51.5 124.5h-83v-217h-102v518h102v-196h86q14 67 55 115t99.5 73t124.5 25q76 0 141 -31t104 -92.5t39 -147.5q0 -85 -39.5 -148.5zM748 356.5q-26 37.5 -68 55.5t-89 18q-48 0 -90 -19
t-68 -57.5t-26 -94.5t26.5 -94t68.5 -57t89 -19q46 0 88.5 21t68.5 60.5t26 93.5q0 55 -26 92.5z" />
    <glyph glyph-name="uni044F" unicode="&#x44f;" horiz-adv-x="695" 
d="M226 27.5q-23 -17.5 -48 -22.5t-63 -5h-45v105h53q17 0 33 10.5t35 41.5l21 33q-64 14 -98 56t-34 104q0 48 23 86.5t63.5 60t91.5 21.5h317v-518h-105v152q-34 18 -61 24.5t-80 8.5l-59 -103q-21 -37 -44 -54.5zM295 415q-43 0 -69 -12t-26 -50q0 -37 26 -49t69 -12
q62 0 103 -6t72 -24v152z" />
    <glyph glyph-name="uni0401" unicode="&#x401;" horiz-adv-x="744" 
d="M227 925.5q17 17.5 42 17.5t42.5 -17.5t17.5 -42.5t-17.5 -42t-42.5 -17t-42 17t-17 42t17 42.5zM448 925.5q17 17.5 42 17.5t42.5 -17.5t17.5 -42.5t-17.5 -42t-42.5 -17t-42 17t-17 42t17 42.5zM284.5 322q34.5 6 75.5 6h163v111h-163q-44 0 -77 -5.5t-64 -23.5v226
h416v110h-525v-746h569v109h-460v190q31 17 65.5 23z" />
    <glyph glyph-name="uni0451" unicode="&#x451;" horiz-adv-x="622" 
d="M180 692.5q17 17.5 42 17.5t42.5 -17.5t17.5 -42.5t-17.5 -42t-42.5 -17t-42 17t-17 42t17 42.5zM401 692.5q17 17.5 42 17.5t42.5 -17.5t17.5 -42.5t-17.5 -42t-42.5 -17t-42 17t-17 42t17 42.5zM286 210.5q29 5.5 98 5.5h76v103h-76q-53 0 -92 -6t-70 -24v126h306v103
h-408v-518h427v104h-325v82q35 19 64 24.5z" />
    <glyph glyph-name="uni0410" unicode="&#x410;" horiz-adv-x="811" 
d="M422 759l359 -759h-122l-49 109h-227q-64 0 -112 -11.5t-76.5 -28.5t-37.5 -34l-19 -35h-118l323 667l-41 92h120zM398 534l-165 -357q22 19 70 30.5t120 11.5h138z" />
    <glyph glyph-name="uni0430" unicode="&#x430;" horiz-adv-x="675" 
d="M355 530l280 -530h-113l-41 78h-62q-59 0 -120 -12.5t-105 -30t-53 -29.5l-3 -6h-108l248 465l-34 65h111zM432 172l-101 192l-123 -237q34 18 86.5 31.5t123.5 13.5h14z" />
    <glyph glyph-name="uni0412" unicode="&#x412;" horiz-adv-x="814" 
d="M707.5 88q-36.5 -46 -95 -67t-124.5 -21h-378v746h378q97 0 158.5 -54t61.5 -150q0 -49 -17.5 -87.5t-49.5 -59.5q43 -20 73 -69.5t30 -121.5q0 -70 -36.5 -116zM283 432q34 6 77 6h128q52 0 81.5 26t29.5 77q0 95 -111 95h-270v-228q31 18 65 24zM499 109q33 0 64.5 12
t52 37t20.5 60q0 60 -42 84.5t-106 24.5h-128q-86 0 -142 -30v-188h281z" />
    <glyph glyph-name="uni0432" unicode="&#x432;" horiz-adv-x="702" 
d="M573 43q-49 -43 -135 -43h-318v518h318q42 0 78 -18.5t57.5 -52t21.5 -75.5q0 -58 -34 -89q29 -17 45 -49.5t16 -71.5q0 -76 -49 -119zM293 321q39 6 92 6h53q52 0 52 45q0 21 -14 32t-38 11h-215v-118q31 18 70 24zM438 104q37 0 59 13t22 47q0 29 -19.5 43.5
t-61.5 14.5h-53q-69 0 -98 -5.5t-64 -24.5v-88h215z" />
    <glyph glyph-name="uni0415" unicode="&#x415;" horiz-adv-x="744" 
d="M679 109v-109h-569v746h525v-110h-416v-226q31 18 64 23.5t77 5.5h163v-111h-163q-41 0 -75.5 -6t-65.5 -23v-190h460z" />
    <glyph glyph-name="uni0435" unicode="&#x435;" horiz-adv-x="622" 
d="M547 104v-104h-427v518h408v-103h-306v-126q31 18 70 24t92 6h76v-103h-76q-69 0 -98 -5.5t-64 -24.5v-82h325z" />
    <glyph glyph-name="uni041C" unicode="&#x41c;" horiz-adv-x="986" 
d="M239 513v-513h-107v641l-87 105h141l305 -366l309 366h141l-87 -105v-641h-107v513l-255 -305z" />
    <glyph glyph-name="uni043C" unicode="&#x43c;" horiz-adv-x="804" 
d="M698 0h-113v303l-183 -244l-183 244v-303h-113v435l-51 83h126l221 -293l221 293h126l-51 -83v-435z" />
    <glyph glyph-name="uni041D" unicode="&#x41d;" horiz-adv-x="876" 
d="M110 0v746h108v-306q40 20 95 20q25 0 97 -9q111 -13 146 -13q58 0 101 19v289h109v-746h-109v347q-43 -19 -101 -19q-35 0 -146 13q-72 9 -97 9q-55 0 -95 -20v-330h-108z" />
    <glyph glyph-name="uni043D" unicode="&#x43d;" horiz-adv-x="726" 
d="M120 0v518h102v-207q27 13 61 13q25 0 71 -7q56 -8 85 -8q38 0 65 13v196h102v-518h-102v217q-26 -13 -61 -13q-22 0 -47.5 3t-32.5 4q-45 7 -76 7q-37 0 -65 -12v-206h-102z" />
    <glyph glyph-name="uni041E" unicode="&#x41e;" horiz-adv-x="923" 
d="M808 175q-55 -89 -147.5 -140.5t-199.5 -51.5q-111 0 -203 53t-145 145t-53 203q0 107 55.5 195t148 138.5t198.5 50.5q109 0 201 -52.5t146 -143.5t54 -200q0 -108 -55 -197zM715 522q-40 64 -107.5 100t-146.5 36q-82 0 -149.5 -37t-106 -102.5t-38.5 -147.5
q0 -78 41 -142t108.5 -100.5t145.5 -36.5q79 0 146.5 38t107 103.5t39.5 144.5q0 80 -40 144z" />
    <glyph glyph-name="uni043E" unicode="&#x43e;" horiz-adv-x="752" 
d="M639 115.5q-43 -63.5 -113.5 -97.5t-150.5 -34t-150 33.5t-112.5 96.5t-42.5 147t43 146.5t113.5 95t149.5 32.5q81 0 150.5 -31t112.5 -92.5t43 -147.5q0 -85 -43 -148.5zM546 355.5q-28 37.5 -73 55.5t-97 18t-97.5 -18.5t-73 -57t-27.5 -94.5t28 -94t73.5 -57
t97.5 -19q50 0 95.5 20.5t73.5 60t28 93.5q0 55 -28 92.5z" />
    <glyph glyph-name="uni0420" unicode="&#x420;" horiz-adv-x="761" 
d="M110 746h383q100 0 159 -57t59 -156t-59.5 -157.5t-158.5 -58.5h-132q-86 0 -142 -30v-287h-109v746zM493 427q110 0 110 106q0 55 -27 79t-83 24h-274v-239q31 18 65 24t77 6h132z" />
    <glyph glyph-name="uni0440" unicode="&#x440;" horiz-adv-x="678" 
d="M120 518h329q76 0 122.5 -45t46.5 -119q0 -77 -50 -122t-137 -45h-46q-69 0 -98.5 -5.5t-64.5 -24.5v-157h-102v518zM292.5 284q39.5 6 92.5 6h46q41 0 61.5 13.5t20.5 51.5q0 34 -22.5 47t-59.5 13h-209v-155q31 18 70.5 24z" />
    <glyph glyph-name="uni0421" unicode="&#x421;" horiz-adv-x="816" 
d="M581 634q-57 24 -120 24q-82 0 -149.5 -37t-106 -102.5t-38.5 -147.5q0 -78 41 -142t108.5 -100.5t145.5 -36.5q72 0 134 31t103 86l67 -91q-57 -64 -136.5 -99.5t-168.5 -35.5q-111 0 -203 53t-145 145t-53 203q0 107 55.5 195t148 138.5t198.5 50.5q83 0 157 -31
t130 -87l-70 -82q-41 42 -98 66z" />
    <glyph glyph-name="uni0441" unicode="&#x441;" horiz-adv-x="648" 
d="M490.5 3q-55.5 -19 -115.5 -19q-80 0 -150 33.5t-112.5 96.5t-42.5 147t43 146.5t113.5 95t149.5 32.5q120 0 201 -61l-69 -80q-53 37 -132 37q-52 0 -97 -19t-72.5 -58t-27.5 -95t28 -94.5t73 -57.5t97 -19q41 0 81 14.5t70 41.5l60 -86q-42 -36 -97.5 -55z" />
    <glyph glyph-name="uni0422" unicode="&#x422;" horiz-adv-x="695" 
d="M402 0h-106v636h-266v110h635v-110h-263v-636z" />
    <glyph glyph-name="uni0442" unicode="&#x442;" horiz-adv-x="566" 
d="M331 0h-103v415h-188v103h486v-103h-195v-415z" />
    <glyph glyph-name="uni0425" unicode="&#x425;" horiz-adv-x="823" 
d="M416 314l-237 -314h-139l306 405l-246 341h132l184 -249l187 249h135l-253 -341l298 -405h-138z" />
    <glyph glyph-name="uni0445" unicode="&#x445;" horiz-adv-x="676" 
d="M50 0l220 274l-191 244h141l122 -156l125 156h137l-194 -243l216 -275h-140l-147 186l-148 -186h-141z" />
    <glyph glyph-name="uni0404" unicode="&#x404;" horiz-adv-x="816" 
d="M571 634q-57 24 -120 24q-131 0 -203.5 -65.5t-87.5 -180.5q30 17 64 23t76 6h240v-111h-240q-82 0 -134 -26q16 -62 58.5 -110t102 -75t125.5 -27q72 0 134 31t103 86l67 -91q-57 -64 -136.5 -99.5t-168.5 -35.5q-111 0 -203 53t-145 145t-53 203t48 198t139 136.5
t215 49.5q83 0 157 -31t130 -87l-70 -82q-41 42 -98 66z" />
    <glyph glyph-name="uni0454" unicode="&#x454;" horiz-adv-x="618" 
d="M470.5 3q-55.5 -19 -115.5 -19q-80 0 -150 33.5t-112.5 96.5t-42.5 147t43 146.5t113.5 95t149.5 32.5q58 0 112 -16.5t96 -48.5l-69 -80q-29 20 -65.5 30.5t-73.5 10.5q-71 0 -126 -35.5t-67 -101.5q30 15 66.5 20t83.5 5h93v-103h-93q-59 0 -87 -4.5t-55 -16.5
q21 -52 72 -79.5t114 -27.5q41 0 81 14.5t70 41.5l60 -86q-42 -36 -97.5 -55z" />
    <glyph glyph-name="uni0405" unicode="&#x405;" horiz-adv-x="740" 
d="M646.5 98.5q-43.5 -55.5 -119 -85.5t-170.5 -30q-87 0 -169 40.5t-138 112.5l78 73q97 -117 229 -117q91 0 156 35t65 100q0 53 -30.5 78t-74 30.5t-116.5 5.5q-134 0 -204.5 49t-70.5 144q0 60 35.5 114t98.5 87t141 33q88 0 161.5 -28t138.5 -90l-68 -80
q-61 49 -111 68.5t-121 19.5q-41 0 -76.5 -17t-56.5 -45.5t-21 -60.5q0 -86 159 -86q127 0 199 -25.5t100.5 -73.5t28.5 -123q0 -73 -43.5 -128.5z" />
    <glyph glyph-name="uni0455" unicode="&#x455;" horiz-adv-x="617" 
d="M294 435q-39 0 -72 -17t-33 -39q0 -18 8 -29t32.5 -17t72.5 -6q104 0 160.5 -21t75.5 -55.5t19 -82.5q0 -90 -73 -137t-189 -47q-67 0 -129.5 29.5t-105.5 80.5l74 75q4 -5 27 -30t57.5 -40t76.5 -15q72 0 116 22t44 62q0 34 -37 45.5t-123 11.5q-100 0 -157 36.5
t-57 117.5q0 46 29 81.5t78 55t107 19.5q62 0 115.5 -14t106.5 -51l-69 -80q-55 45 -154 45z" />
    <glyph glyph-name="uni0456" unicode="&#x456;" horiz-adv-x="342" 
d="M120 518h102v-518h-102v518z" />
    <glyph glyph-name="uni0406" unicode="&#x406;" horiz-adv-x="327" 
d="M110 746h107v-746h-107v746z" />
    <glyph glyph-name="uni040E" unicode="&#x40e;" horiz-adv-x="790" 
d="M464.5 893q16.5 22 16.5 53h115q-7 -58 -51.5 -101.5t-140.5 -43.5t-140.5 43.5t-51.5 101.5h115q0 -31 16.5 -53t60.5 -22t60.5 22zM218.5 528q41.5 -94 89 -161.5t115.5 -148.5q59 99 113 244.5t89 283.5h125q-50 -187 -115.5 -349.5t-158.5 -298.5
q-42 -61 -89.5 -84.5t-106.5 -23.5q-39 0 -86 14t-67 34l42 95q25 -20 49 -28.5t62 -8.5q56 0 79 41q-116 106 -200 254t-129 355h119q28 -124 69.5 -218z" />
    <glyph glyph-name="uni045E" unicode="&#x45e;" horiz-adv-x="647" 
d="M379.5 663q16.5 22 16.5 53h115q-7 -58 -51.5 -101.5t-140.5 -43.5t-140.5 43.5t-51.5 101.5h115q0 -31 16.5 -53t60.5 -22t60.5 22zM212 92q27 0 44.5 12t34.5 35q-48 24 -98 82.5t-90.5 136.5t-62.5 160h115q24 -96 74.5 -174t122.5 -124q33 56 70.5 136t63.5 162h111
q-43 -127 -103.5 -250.5t-125.5 -201.5q-38 -45 -70.5 -59t-87.5 -14q-32 0 -74.5 16t-75.5 40l57 89q59 -46 95 -46z" />
    <glyph glyph-name="uni0408" unicode="&#x408;" horiz-adv-x="675" 
d="M521 117q-44 -70 -110.5 -102t-136.5 -32q-67 0 -137.5 24t-116.5 64l55 96q29 -32 81 -54t119 -22q90 0 134.5 60t47.5 147v338h-159l-48 110h315v-451q0 -108 -44 -178z" />
    <glyph glyph-name="uni0458" unicode="&#x458;" horiz-adv-x="545" 
d="M194 88q54 0 91.5 26.5t37.5 79.5v221h-124l-46 103h272v-324q0 -68 -31.5 -115t-86 -71t-121.5 -24q-35 0 -83 11.5t-73 27.5l54 94q31 -29 110 -29z" />
    <glyph glyph-name="uni0407" unicode="&#x407;" horiz-adv-x="360" 
d="M27 925.5q17 17.5 42 17.5t42.5 -17.5t17.5 -42.5t-17.5 -42t-42.5 -17t-42 17t-17 42t17 42.5zM248 925.5q17 17.5 42 17.5t42.5 -17.5t17.5 -42.5t-17.5 -42t-42.5 -17t-42 17t-17 42t17 42.5zM233 746h-107v-746h107v746z" />
    <glyph glyph-name="uni0490" unicode="&#x490;" horiz-adv-x="690" 
d="M635 636h-416v-636h-109v746h416v89h109v-199z" />
    <glyph glyph-name="uni0491" unicode="&#x491;" horiz-adv-x="563" 
d="M498 415h-276v-415h-102v518h269v96h109v-199z" />
    <glyph glyph-name="uni0457" unicode="&#x457;" horiz-adv-x="380" 
d="M37 692.5q17 17.5 42 17.5t42.5 -17.5t17.5 -42.5t-17.5 -42t-42.5 -17t-42 17t-17 42t17 42.5zM258 692.5q17 17.5 42 17.5t42.5 -17.5t17.5 -42.5t-17.5 -42t-42.5 -17t-42 17t-17 42t17 42.5zM240 518h-102v-518h102v518z" />
    <glyph glyph-name="uni0403" unicode="&#x403;" horiz-adv-x="690" 
d="M292 813l80 122h117l-106 -122h-91zM110 0v746h525v-110h-416v-636h-109z" />
    <glyph glyph-name="uni0453" unicode="&#x453;" horiz-adv-x="563" 
d="M227 580l80 122h117l-106 -122h-91zM222 0h-102v518h378v-103h-276v-415z" />
    <glyph glyph-name="uni040C" unicode="&#x40c;" horiz-adv-x="835" 
d="M308 813l80 122h117l-106 -122h-91zM110 0v746h109v-307h50q87 0 140 29l189 278h131l-245 -351l134 -201q34 -51 63 -67.5t60 -16.5l24 1v-111h-39q-40 0 -69.5 7.5t-60 33t-63.5 77.5l-143 229q-44 -19 -108 -19h-63v-328h-109z" />
    <glyph glyph-name="uni045C" unicode="&#x45c;" horiz-adv-x="728" 
d="M276 580l80 122h117l-106 -122h-91zM120 0v518h109v-210h34q28 0 46 4.5t33 16.5l146 189h132l-190 -243l87 -118q21 -29 46 -41t49 -12h36v-104h-45q-33 0 -56 4.5t-48 22.5t-51 55l-91 130q-35 -13 -84 -13h-44v-199h-109z" />
    <glyph glyph-name="uni0409" unicode="&#x409;" horiz-adv-x="1243" 
d="M588 636h-185q-38 -393 -184 -566q-59 -70 -169 -70h-20v109h20q33 0 63 18t67 77q54 87 78.5 189t39.5 243h-86l-47 110h532v-278q56 -30 142 -30h98q123 0 192 -55.5t69 -164.5q0 -121 -76 -169.5t-185 -48.5h-349v636zM762 333q-34 6 -65 24v-248h251q55 0 96 25.5
t41 83.5q0 60 -42 84.5t-106 24.5h-98q-43 0 -77 6z" />
    <glyph glyph-name="uni0402" unicode="&#x402;" horiz-adv-x="820" 
d="M30 746h415v-110h-152v-177q43 21 86.5 31.5t103.5 10.5q149 0 220.5 -63.5t71.5 -214.5q0 -56 -27 -107.5t-71 -83.5t-93 -32h-79v109h46q70 0 92.5 45.5t22.5 98.5q0 77 -47 109t-140 32q-39 0 -79 -10.5t-107 -34.5v-349h-109v636h-154v110z" />
    <glyph glyph-name="uni0452" unicode="&#x452;" horiz-adv-x="820" 
d="M184 636h-154v110h415v-110h-152v-177q43 21 86.5 31.5t103.5 10.5q149 0 220.5 -63.5t71.5 -214.5q0 -36 -5.5 -107.5t-14.5 -115.5h-109q20 128 20 253q0 77 -47 109t-140 32q-39 0 -79 -10.5t-107 -34.5v-349h-109v636z" />
    <glyph glyph-name="uni040F" unicode="&#x40f;" horiz-adv-x="836" 
d="M372 0h-262v746h108v-636h399v636h109v-746h-246v-174h-108v174z" />
    <glyph glyph-name="uni040A" unicode="&#x40a;" horiz-adv-x="1310" 
d="M766 746v-279q55 -29 140 -29h98q123 0 192 -55.5t69 -164.5q0 -121 -76 -169.5t-185 -48.5h-349v346q-41 -18 -99 -18q-35 0 -146 13q-72 9 -97 9q-55 0 -95 -20v-330h-108v746h108v-306q40 20 95 20q25 0 97 -9q111 -13 146 -13q58 0 99 18l2 290h109zM829.5 333
q-33.5 6 -63.5 23v-247h249q55 0 96 25.5t41 83.5q0 60 -42 84.5t-106 24.5h-98q-43 0 -76.5 6z" />
    <glyph glyph-name="uni045F" unicode="&#x45f;" horiz-adv-x="726" 
d="M316 0h-196v518h102v-415h282v415h102v-518h-188v-154h-102v154z" />
    <glyph glyph-name="uni2116" unicode="&#x2116;" horiz-adv-x="1128" 
d="M186 746l479 -570v570h249v-95h-139v-651h-108l-428 513v-513h-107v641l-87 105h141zM1062 310q-36 -36 -87 -36q-52 0 -88 36t-36 87q0 52 36 88t87 36q52 0 88 -36t36 -87q0 -52 -36 -88zM1015 437.5q-17 17.5 -41 17.5t-40.5 -17t-16.5 -41t17 -40.5t40 -16.5
q24 0 41 16.5t17 40.5q0 23 -17 40.5zM857 191h239v-68h-239v68z" />
    <glyph glyph-name="uni040B" unicode="&#x40b;" horiz-adv-x="701" 
d="M180 415h-140v103h386v-103h-144v-87q31 12 61.5 17t71.5 5q113 0 172 -40t59 -133q0 -66 -41 -121.5t-153 -55.5v92q45 0 68.5 23t23.5 62q0 41 -29.5 56t-102.5 15q-34 0 -58.5 -5t-71.5 -19v-224h-102v415z" />
    <glyph glyph-name="uni045B" unicode="&#x45b;" horiz-adv-x="701" 
d="M180 415h-140v103h386v-103h-144v-87q31 12 61.5 17t71.5 5q113 0 172 -40t59 -133q0 -106 -20 -177h-102q20 69 20 150q0 55 -30 76.5t-102 21.5q-34 0 -58.5 -5t-71.5 -19v-224h-102v415z" />
    <glyph glyph-name="uni0459" unicode="&#x459;" horiz-adv-x="978" 
d="M608 330.5q29 -5.5 98 -5.5h23q81 0 132.5 -42.5t51.5 -120.5q0 -79 -51.5 -120.5t-132.5 -41.5h-294v415h-125q-25 -260 -118 -370q-38 -45 -109 -45h-53v104h27q40 0 76 57q35 56 47.5 109.5t20.5 144.5h-84l-44 103h471v-163q35 -19 64 -24.5zM729 104q37 0 59 13
t22 47q0 33 -22 45.5t-59 12.5h-23q-53 0 -92 6t-70 24v-148h185z" />
    <glyph glyph-name="uni045A" unicode="&#x45a;" horiz-adv-x="1031" 
d="M671 330.5q29 -5.5 98 -5.5h23q81 0 132.5 -42.5t51.5 -120.5q0 -79 -51.5 -120.5t-132.5 -41.5h-288v217q-26 -13 -61 -13q-22 0 -47.5 3t-32.5 4q-45 7 -76 7q-37 0 -65 -12v-206h-102v518h102v-207q27 13 61 13q25 0 71 -7q56 -8 85 -8q38 0 65 13v196h103v-163
q35 -19 64 -24.5zM792 104q37 0 59 13t22 47q0 33 -22 45.5t-59 12.5h-23q-53 0 -92 6t-70 24v-148h185z" />
    <glyph glyph-name="uni20BD" unicode="&#x20bd;" horiz-adv-x="840" 
d="M189 427v319h383q100 0 159 -57t59 -156t-59.5 -157.5t-158.5 -58.5h-274v-70h256v-110h-256v-137h-109v137h-79v110h79v70h-79v110h79zM682 533q0 55 -27.5 79.5t-82.5 24.5h-274v-210h274q110 0 110 106z" />
    <glyph glyph-name="uni0411" unicode="&#x411;" horiz-adv-x="794" 
d="M360 438h128q117 0 186.5 -57.5t69.5 -176.5q0 -70 -36.5 -116t-95 -67t-124.5 -21h-378v746h504v-110h-396v-168q56 -30 142 -30zM499 110q55 0 96 25t41 83q0 60 -42 84.5t-106 24.5h-128q-43 0 -77 6t-65 24v-247h281z" />
    </font>
</defs>
</svg>
