<svg width="185.730957" height="187.911621" viewBox="0 0 185.731 187.912" fill="none" xmlns="http://www.w3.org/2000/svg" xmlns:xlink="http://www.w3.org/1999/xlink">
	<desc>
			Created with Pixso.
	</desc>
	<defs/>
	<path id="Vector" d="M135.565 87.6497C127.087 87.6497 120.264 80.6545 120.264 71.9639C120.264 63.2732 127.087 56.2781 135.565 56.2781C144.043 56.2781 150.867 63.2732 150.867 71.9639C150.867 80.6545 144.043 87.6497 135.565 87.6497ZM135.565 62.6372C130.5 62.6372 126.364 66.8765 126.364 72.0698C126.364 77.2632 130.5 81.5024 135.565 81.5024C140.632 81.5024 144.767 77.2632 144.767 72.0698C144.767 66.8765 140.632 62.6372 135.565 62.6372Z" fill="#5F5852" fill-opacity="1.000000" fill-rule="evenodd"/>
	<path id="Vector" d="M50.0615 87.6497C41.5835 87.6497 34.7598 80.6545 34.7598 71.9639C34.7598 63.2732 41.5835 56.2781 50.0615 56.2781C58.5396 56.2781 65.3633 63.2732 65.3633 71.9639C65.3633 80.6545 58.5396 87.6497 50.0615 87.6497ZM50.0615 62.6372C44.9956 62.6372 40.8599 66.8765 40.8599 72.0698C40.8599 77.2632 44.9956 81.5024 50.0615 81.5024C55.1279 81.5024 59.2632 77.2632 59.2632 72.0698C59.2632 66.8765 55.1279 62.6372 50.0615 62.6372Z" fill="#5F5852" fill-opacity="1.000000" fill-rule="evenodd"/>
	<path id="Vector" d="M153.866 107.787L183.022 80.6545C186.434 77.3691 186.641 71.9639 183.539 68.3604C180.438 64.7568 175.165 64.439 171.546 67.6184L149.627 87.6497L118.816 87.6497L95.8638 116.478L95.8638 37.5188L126.467 37.5188L126.467 50.0249L176.819 50.0249L169.478 31.2656L176.819 12.5063L141.769 12.5063L141.769 0L89.8672 0L89.8672 116.583L66.9141 87.7556L36.104 87.7556L14.1851 67.7244C10.6699 64.5449 5.29346 64.9688 2.19189 68.4663C-0.910156 72.0698 -0.703125 77.4751 2.7085 80.7607L31.8647 107.893L31.8647 181.658L1.26123 181.658L1.26123 187.912L184.573 187.912L184.573 181.658L153.969 181.658L153.969 107.893L153.866 107.787ZM141.666 18.6533L167.72 18.6533L162.861 31.1597L167.72 43.6658L132.464 43.6658L132.464 37.4128L141.666 37.4128L141.666 18.6533ZM95.8638 6.14722L135.566 6.14722L135.566 31.1597L95.8638 31.1597L95.8638 6.14722ZM62.2617 181.552L53.0601 181.552L53.0601 137.675L46.96 137.675L46.96 181.552L37.7583 181.552L37.7583 105.031L6.6377 75.9912C5.81055 75.1433 5.60352 73.7656 6.22412 72.8118C6.6377 72.1758 7.25781 71.8579 7.87793 71.752C8.60205 71.646 9.22217 71.8579 9.84277 72.3879L33.519 93.9028L63.8125 93.9028L86.5586 122.413C87.4893 123.473 87.2822 125.062 86.2485 126.016C85.2144 126.864 83.6636 126.758 82.7329 125.698L62.2617 101.216L62.2617 181.764L62.2617 181.552ZM117.266 181.552L68.3618 181.552L68.3618 117.961L78.1841 129.62C80.9756 133.011 85.835 133.647 89.4536 131.209C89.5566 131.104 89.6602 130.998 89.7637 130.998L89.7637 156.54L95.8638 156.54L95.8638 130.998C95.9673 131.104 96.0703 131.209 96.1738 131.315C99.7925 133.753 104.652 133.117 107.443 129.726L117.162 118.067L117.162 181.658L117.266 181.552ZM147.869 181.552L138.667 181.552L138.667 137.675L132.567 137.675L132.567 181.552L123.366 181.552L123.366 101.004L102.894 125.592C102.067 126.546 100.62 126.758 99.5859 126.016C98.9653 125.592 98.6553 124.956 98.5518 124.321C98.4482 123.579 98.6553 122.837 99.0688 122.307L121.815 93.7969L152.108 93.7969L175.785 72.1758C176.302 71.646 177.025 71.4338 177.749 71.54C178.473 71.646 179.093 72.0698 179.507 72.5999C180.127 73.6597 180.024 74.9314 179.093 75.7793L147.973 104.819L147.973 181.341L147.869 181.552Z" fill="#5F5852" fill-opacity="1.000000" fill-rule="evenodd"/>
</svg>
