<svg width="356.000000" height="111.000000" viewBox="0 0 356 111" fill="none" xmlns="http://www.w3.org/2000/svg" xmlns:xlink="http://www.w3.org/1999/xlink">
	<desc>
			Created with Pixso.
	</desc>
	<defs/>
	<path id="Фигура 2" d="M107.788 33L108 32.6926L55.2124 0L55 0.307373L107.788 33Z" fill="#83786F" fill-opacity="1.000000" fill-rule="evenodd"/>
	<path id="Фигура 2" d="M55.0161 0.317383L55 0.307373L55.2124 0L101.704 28.7935L107.984 32.6826L108 32.6926L107.788 33L55.0161 0.317383Z" fill="#83786F" fill-opacity="1.000000" fill-rule="evenodd"/>
	<path id="Фигура 1" d="M0.507812 32.7891L0.289551 32.4856L54.4922 0.210938L54.7104 0.514404L0.507812 32.7891Z" fill="#83786F" fill-opacity="1.000000" fill-rule="evenodd"/>
	<path id="Фигура 1" d="M54.6826 0.530762L54.7104 0.514404L54.4922 0.210938L4.00879 30.271L0.317383 32.4692L0.289551 32.4856L0.507812 32.7891L54.6826 0.530762Z" fill="#83786F" fill-opacity="1.000000" fill-rule="evenodd"/>
	<path id="Прямоугольник 1" d="M0 33L108 33L108 97L0 97L0 33Z" fill="#524335" fill-opacity="0.670000" fill-rule="evenodd"/>
	<path id="DODOMU" d="M132.426 90.52L132.826 90.52C133.2 90.52 133.546 90.36 133.866 90.04C134.186 89.72 134.453 89.3467 134.666 88.92C134.933 88.4933 135.12 88.04 135.226 87.56C135.333 87.0267 135.386 86.5467 135.386 86.12L135.386 43.48C135.386 43.1067 135.333 42.68 135.226 42.2C135.12 41.72 134.96 41.2667 134.746 40.84C134.533 40.4133 134.266 40.0667 133.946 39.8C133.626 39.48 133.253 39.32 132.826 39.32L132.426 39.32L132.426 38.52L147.866 38.52C152.08 38.52 155.866 39.2667 159.226 40.76C162.586 42.2 165.413 44.1733 167.706 46.68C170.053 49.1333 171.84 51.96 173.066 55.16C174.293 58.36 174.906 61.6933 174.906 65.16C174.906 68.4133 174.32 71.6133 173.146 74.76C171.973 77.8533 170.213 80.6267 167.866 83.08C165.52 85.5333 162.586 87.5333 159.066 89.08C155.546 90.5733 151.466 91.32 146.826 91.32L132.426 91.32L132.426 90.52ZM169.466 66.36C169.466 62.9467 168.853 59.72 167.626 56.68C166.4 53.64 164.666 51 162.426 48.76C160.24 46.4667 157.626 44.6533 154.586 43.32C151.6 41.9867 148.346 41.32 144.826 41.32L140.746 41.32L140.746 88.52L144.986 88.52C147.866 88.52 150.746 88.0933 153.626 87.24C156.56 86.3333 159.2 84.9733 161.546 83.16C163.893 81.2933 165.786 78.9733 167.226 76.2C168.72 73.4267 169.466 70.1467 169.466 66.36ZM206.732 37.72C210.892 37.72 214.625 38.4667 217.932 39.96C221.239 41.4 224.039 43.3733 226.332 45.88C228.679 48.3333 230.465 51.2133 231.692 54.52C232.972 57.7733 233.612 61.1867 233.612 64.76C233.612 68.76 232.865 72.44 231.372 75.8C229.932 79.16 227.932 82.04 225.372 84.44C222.812 86.84 219.825 88.7333 216.412 90.12C213.052 91.4533 209.452 92.12 205.612 92.12C201.505 92.12 197.799 91.3733 194.492 89.88C191.239 88.3867 188.465 86.4133 186.172 83.96C183.932 81.5067 182.199 78.68 180.972 75.48C179.745 72.28 179.132 68.9467 179.132 65.48C179.132 62.0667 179.745 58.7067 180.972 55.4C182.199 52.04 183.985 49.0533 186.332 46.44C188.732 43.8267 191.639 41.72 195.052 40.12C198.465 38.52 202.359 37.72 206.732 37.72ZM206.652 89.32C210.225 89.16 213.345 88.36 216.012 86.92C218.732 85.4267 220.999 83.56 222.812 81.32C224.625 79.0267 225.959 76.52 226.812 73.8C227.719 71.08 228.172 68.3867 228.172 65.72C228.172 62.7867 227.639 59.8267 226.572 56.84C225.505 53.8533 223.985 51.16 222.012 48.76C220.039 46.3067 217.665 44.3333 214.892 42.84C212.172 41.2933 209.105 40.52 205.692 40.52C202.385 40.52 199.425 41.2667 196.812 42.76C194.199 44.2 191.959 46.0667 190.092 48.36C188.279 50.6533 186.892 53.2133 185.932 56.04C184.972 58.8667 184.492 61.64 184.492 64.36C184.492 67.2933 185.052 70.2533 186.172 73.24C187.292 76.1733 188.839 78.84 190.812 81.24C192.785 83.64 195.105 85.5867 197.772 87.08C200.492 88.5733 203.452 89.32 206.652 89.32ZM283.671 90.52L284.071 90.52C284.445 90.52 284.791 90.36 285.111 90.04C285.431 89.72 285.698 89.3467 285.911 88.92C286.178 88.4933 286.365 88.04 286.471 87.56C286.578 87.0267 286.631 86.5467 286.631 86.12L286.631 44.04L265.991 92.2L246.391 46.52L246.391 86.12C246.391 86.5467 246.445 87.0267 246.551 87.56C246.658 88.04 246.818 88.4933 247.031 88.92C247.298 89.3467 247.591 89.72 247.911 90.04C248.231 90.36 248.605 90.52 249.031 90.52L249.431 90.52L249.431 91.32L240.711 91.32L240.711 90.52L241.111 90.52C241.485 90.52 241.831 90.36 242.151 90.04C242.471 89.72 242.738 89.3467 242.951 88.92C243.165 88.4933 243.325 88.04 243.431 87.56C243.538 87.0267 243.591 86.5467 243.591 86.12L243.591 43.48C243.591 43.1067 243.538 42.68 243.431 42.2C243.325 41.72 243.165 41.2667 242.951 40.84C242.738 40.4133 242.471 40.0667 242.151 39.8C241.831 39.48 241.485 39.32 241.111 39.32L240.711 39.32L240.711 38.52L248.871 38.52L267.431 82.28L285.991 38.52L295.031 38.52L295.031 39.32L294.631 39.32C294.205 39.32 293.831 39.48 293.511 39.8C293.191 40.0667 292.898 40.4133 292.631 40.84C292.418 41.2667 292.258 41.72 292.151 42.2C292.045 42.68 291.991 43.1067 291.991 43.48L291.991 86.12C291.991 86.5467 292.045 87.0267 292.151 87.56C292.258 88.04 292.418 88.4933 292.631 88.92C292.898 89.3467 293.191 89.72 293.511 90.04C293.831 90.36 294.205 90.52 294.631 90.52L295.031 90.52L295.031 91.32L283.671 91.32L283.671 90.52ZM302.819 38.52L314.179 38.52L314.179 39.32L313.779 39.32C313.352 39.32 312.979 39.48 312.659 39.8C312.339 40.0667 312.045 40.4133 311.779 40.84C311.565 41.2667 311.405 41.72 311.299 42.2C311.192 42.68 311.139 43.1067 311.139 43.48L311.139 75.08C311.139 77.16 311.352 79.08 311.779 80.84C312.205 82.6 312.925 84.12 313.939 85.4C314.952 86.68 316.285 87.6933 317.939 88.44C319.592 89.1333 321.619 89.48 324.019 89.48C326.685 89.48 328.819 89.0533 330.419 88.2C332.019 87.3467 333.245 86.2533 334.099 84.92C334.952 83.5333 335.512 81.9867 335.779 80.28C336.045 78.5733 336.179 76.8933 336.179 75.24L336.179 43.48C336.179 43.1067 336.125 42.68 336.019 42.2C335.912 41.72 335.725 41.2667 335.459 40.84C335.245 40.4133 334.979 40.0667 334.659 39.8C334.339 39.48 333.992 39.32 333.619 39.32L333.219 39.32L333.219 38.52L341.939 38.52L341.939 39.32L341.539 39.32C341.112 39.32 340.739 39.48 340.419 39.8C340.152 40.0667 339.885 40.4133 339.619 40.84C339.405 41.2667 339.245 41.72 339.139 42.2C339.032 42.68 338.979 43.1067 338.979 43.48L338.979 75C338.979 78.4667 338.552 81.32 337.699 83.56C336.845 85.7467 335.672 87.48 334.179 88.76C332.685 90.04 330.925 90.92 328.899 91.4C326.925 91.88 324.819 92.12 322.579 92.12C320.179 92.12 317.939 91.8533 315.859 91.32C313.832 90.84 312.072 89.96 310.579 88.68C309.085 87.4 307.912 85.6667 307.059 83.48C306.205 81.24 305.779 78.44 305.779 75.08L305.779 43.48C305.779 43.1067 305.725 42.68 305.619 42.2C305.512 41.72 305.325 41.2667 305.059 40.84C304.845 40.4133 304.579 40.0667 304.259 39.8C303.939 39.48 303.592 39.32 303.219 39.32L302.819 39.32L302.819 38.52Z" fill="#1F2004" fill-opacity="1.000000" fill-rule="evenodd"/>
	<path id="DODOMU" d="M3.52 90.52L3.92 90.52C4.29333 90.52 4.64 90.36 4.96 90.04C5.28 89.72 5.54667 89.3467 5.76 88.92C6.02667 88.4933 6.21333 88.04 6.32 87.56C6.42667 87.0267 6.48 86.5467 6.48 86.12L6.48 43.48C6.48 43.1067 6.42667 42.68 6.32 42.2C6.21333 41.72 6.05333 41.2667 5.84 40.84C5.62667 40.4133 5.36 40.0667 5.04 39.8C4.72 39.48 4.34667 39.32 3.92 39.32L3.52 39.32L3.52 38.52L18.96 38.52C23.1733 38.52 26.96 39.2667 30.32 40.76C33.68 42.2 36.5067 44.1733 38.8 46.68C41.1467 49.1333 42.9333 51.96 44.16 55.16C45.3867 58.36 46 61.6933 46 65.16C46 68.4133 45.4133 71.6133 44.24 74.76C43.0667 77.8533 41.3067 80.6267 38.96 83.08C36.6133 85.5333 33.68 87.5333 30.16 89.08C26.64 90.5733 22.56 91.32 17.92 91.32L3.52 91.32L3.52 90.52ZM40.56 66.36C40.56 62.9467 39.9467 59.72 38.72 56.68C37.4933 53.64 35.76 51 33.52 48.76C31.3333 46.4667 28.72 44.6533 25.68 43.32C22.6933 41.9867 19.44 41.32 15.92 41.32L11.84 41.32L11.84 88.52L16.08 88.52C18.96 88.52 21.84 88.0933 24.72 87.24C27.6533 86.3333 30.2933 84.9733 32.64 83.16C34.9867 81.2933 36.88 78.9733 38.32 76.2C39.8133 73.4267 40.56 70.1467 40.56 66.36ZM77.8256 37.72C81.9856 37.72 85.719 38.4667 89.0256 39.96C92.3323 41.4 95.1323 43.3733 97.4256 45.88C99.7723 48.3333 101.559 51.2133 102.786 54.52C104.066 57.7733 104.706 61.1867 104.706 64.76C104.706 68.76 103.959 72.44 102.466 75.8C101.026 79.16 99.0256 82.04 96.4656 84.44C93.9056 86.84 90.919 88.7333 87.5056 90.12C84.1456 91.4533 80.5456 92.12 76.7056 92.12C72.599 92.12 68.8923 91.3733 65.5856 89.88C62.3323 88.3867 59.559 86.4133 57.2656 83.96C55.0256 81.5067 53.2923 78.68 52.0656 75.48C50.839 72.28 50.2256 68.9467 50.2256 65.48C50.2256 62.0667 50.839 58.7067 52.0656 55.4C53.2923 52.04 55.079 49.0533 57.4256 46.44C59.8256 43.8267 62.7323 41.72 66.1456 40.12C69.559 38.52 73.4523 37.72 77.8256 37.72ZM77.7456 89.32C81.319 89.16 84.439 88.36 87.1056 86.92C89.8256 85.4267 92.0923 83.56 93.9056 81.32C95.719 79.0267 97.0523 76.52 97.9056 73.8C98.8123 71.08 99.2656 68.3867 99.2656 65.72C99.2656 62.7867 98.7323 59.8267 97.6656 56.84C96.599 53.8533 95.079 51.16 93.1056 48.76C91.1323 46.3067 88.759 44.3333 85.9856 42.84C83.2656 41.2933 80.199 40.52 76.7856 40.52C73.479 40.52 70.519 41.2667 67.9056 42.76C65.2923 44.2 63.0523 46.0667 61.1856 48.36C59.3723 50.6533 57.9856 53.2133 57.0256 56.04C56.0656 58.8667 55.5856 61.64 55.5856 64.36C55.5856 67.2933 56.1456 70.2533 57.2656 73.24C58.3856 76.1733 59.9323 78.84 61.9056 81.24C63.879 83.64 66.199 85.5867 68.8656 87.08C71.5856 88.5733 74.5456 89.32 77.7456 89.32Z" fill="#FFFFFF" fill-opacity="1.000000" fill-rule="evenodd"/>
</svg>
