<svg width="155.920410" height="201.772949" viewBox="0 0 155.92 201.773" fill="none" xmlns="http://www.w3.org/2000/svg" xmlns:xlink="http://www.w3.org/1999/xlink">
	<desc>
			Created with Pixso.
	</desc>
	<defs>
		<filter id="filter_533_202_dd" x="32.296387" y="0.000000" width="73.609863" height="47.061768" filterUnits="userSpaceOnUse" color-interpolation-filters="sRGB">
			<feFlood flood-opacity="0" result="BackgroundImageFix"/>
			<feColorMatrix in="SourceAlpha" type="matrix" values="0 0 0 0 0 0 0 0 0 0 0 0 0 0 0 0 0 0 127 0" result="hardAlpha"/>
			<feOffset dx="0" dy="4"/>
			<feGaussianBlur stdDeviation="1.33333"/>
			<feComposite in2="hardAlpha" operator="out" k2="-1" k3="1"/>
			<feColorMatrix type="matrix" values="0 0 0 0 0 0 0 0 0 0 0 0 0 0 0 0 0 0 0.25 0"/>
			<feBlend mode="normal" in2="BackgroundImageFix" result="effect_dropShadow_1"/>
			<feBlend mode="normal" in="SourceGraphic" in2="effect_dropShadow_1" result="shape"/>
		</filter>
	</defs>
	<path id="Vector" d="M152.749 133.816L143.276 141.396L144.629 153.355C145.137 158.745 140.739 163.293 135.326 162.619L123.315 161.272L115.704 170.704C112.32 174.915 105.893 174.915 102.509 170.704L94.8975 161.272L82.8872 162.619C77.4741 163.125 72.9072 158.745 73.584 153.355L74.937 141.396L65.4644 133.816C61.2354 130.448 61.2354 124.047 65.4644 120.678L74.937 113.098L73.584 101.139C73.0762 95.7493 77.4741 91.2014 82.8872 91.875L94.8975 93.2227L102.509 83.79C105.893 79.5791 112.32 79.5791 115.704 83.79L123.315 93.2227L135.326 91.875C140.739 91.3699 145.306 95.7493 144.629 101.139L143.276 113.098L152.749 120.678C156.978 124.047 156.978 130.448 152.749 133.816ZM149.196 125.057L138.54 116.635C137.863 115.962 137.355 115.12 137.524 114.109L139.047 100.634C139.216 98.781 137.694 97.2651 136.002 97.6021L122.47 99.1179C121.455 99.2864 120.609 98.781 119.933 98.1072L111.475 87.4956C110.291 86.1482 108.261 86.1482 107.077 87.4956L98.6187 98.1072C97.9424 98.781 97.0962 99.2864 96.0815 99.1179L82.5488 97.6021C80.6885 97.4336 79.166 98.9495 79.5044 100.634L81.0269 114.109C81.1958 115.12 80.6885 115.962 80.0117 116.635L69.355 125.057C68.0015 126.237 68.0015 128.258 69.355 129.437L80.0117 137.859C80.6885 138.532 81.1958 139.375 81.0269 140.385L79.5044 153.86C79.335 155.713 80.8574 157.229 82.5488 156.892L96.0815 155.376C97.0962 155.208 97.9424 155.713 98.6187 156.387L107.077 166.999C108.261 168.346 110.291 168.346 111.475 166.999L119.933 156.387C120.609 155.713 121.455 155.208 122.47 155.376L136.002 156.892C137.863 157.061 139.385 155.545 139.047 153.86L137.524 140.385C137.355 139.375 137.863 138.532 138.54 137.859L149.196 129.437C150.55 128.258 150.55 126.237 149.196 125.057ZM121.117 115.625C119.933 114.446 118.241 114.446 117.057 115.625L95.7432 136.848C94.5591 138.027 94.5591 139.712 95.7432 140.891C96.9272 142.07 98.6187 142.07 99.8027 140.891L121.117 119.667C122.301 118.488 122.301 116.804 121.117 115.625ZM124.838 138.027C124.838 140.722 122.639 142.912 119.933 142.912C117.226 142.912 115.027 140.722 115.027 138.027C115.027 135.332 117.226 133.143 119.933 133.143C122.639 133.143 124.838 135.332 124.838 138.027ZM120.609 138.027C120.609 137.69 120.271 137.354 119.933 137.354C119.594 137.354 119.256 137.69 119.256 138.027C119.256 138.364 119.594 138.701 119.933 138.701C120.271 138.701 120.609 138.364 120.609 138.027ZM93.7134 116.804C93.7134 114.109 95.9121 111.919 98.6187 111.919C101.325 111.919 103.524 114.109 103.524 116.804C103.524 119.499 101.325 121.689 98.6187 121.689C95.9121 121.689 93.7134 119.499 93.7134 116.804ZM97.9424 116.804C97.9424 117.141 98.2803 117.478 98.6187 117.478C98.957 117.478 99.2954 117.141 99.2954 116.804C99.2954 116.467 98.957 116.13 98.6187 116.13C98.2803 116.13 97.9424 116.467 97.9424 116.804Z" fill="#5F5852" fill-opacity="1.000000" fill-rule="evenodd"/>
	<path id="Vector" d="M89.8228 186.537L89.8228 197.149C89.8228 199.339 88.1313 201.023 85.9321 201.023L17.0859 201.023C15.0562 201.023 13.1953 199.339 13.1953 197.149L13.1953 52.9658C13.1953 52.9658 13.0259 49.4285 16.4092 47.5757C19.4541 45.8914 37.5537 41.175 39.7529 40.5015L39.7529 39.4907L62.9272 39.4907L62.9272 40.5015C63.9419 40.8381 83.2256 45.7229 86.4395 47.4072C89.146 48.9233 89.4844 51.6182 89.6538 52.4604C89.6538 52.6289 89.6538 52.9658 89.6538 53.1343L89.6538 81.4319" stroke="#5F5852" stroke-opacity="1.000000" stroke-width="1.500000" stroke-linejoin="round" stroke-linecap="round"/>
	<path id="Vector" d="M81.5337 171.546L81.7031 193.612L22.1602 193.612C21.1455 193.612 20.1304 192.77 20.1304 191.591L20.1304 67.6199C20.1304 66.6094 20.9761 65.5986 22.1602 65.5986L79.6733 65.5986C80.688 65.5986 81.7031 66.4409 81.7031 67.6199L81.5337 83.6216" stroke="#5F5852" stroke-opacity="1.000000" stroke-width="1.500000" stroke-linejoin="round" stroke-linecap="round"/>
	<g filter="url(#filter_533_202_dd)"/>
	<path id="Vector" d="M62.9272 38.3118L62.9272 36.9641L39.9219 36.9641L39.9219 38.3118L62.9272 38.3118ZM95.2358 12.2039L97.0967 12.2039L97.0967 9.50879L101.156 9.50879L101.156 4.28711L65.2954 4.28711L65.2954 2.77124C65.2954 1.76074 64.4497 0.75 63.2656 0.75L39.0762 0.75C38.0615 0.75 37.0464 1.59229 37.0464 2.77124L37.0464 13.2144L47.1958 13.2144L47.1958 17.9307L43.3052 17.9307L43.3052 22.4785L39.7529 22.4785L39.7529 37.1326L62.5889 37.1326L62.5889 22.4785L59.375 22.4785L59.375 17.9307L55.4844 17.9307L55.4844 13.2144L64.957 13.2144L64.957 9.67725L94.8975 9.67725L95.2358 9.50879L95.2358 12.2039Z" stroke="#5F5852" stroke-opacity="1.000000" stroke-width="1.500000" stroke-linejoin="round"/>
</svg>
