<svg width="186.000000" height="188.053711" viewBox="0 0 186 188.054" fill="none" xmlns="http://www.w3.org/2000/svg" xmlns:xlink="http://www.w3.org/1999/xlink">
	<desc>
			Created with Pixso.
	</desc>
	<defs/>
	<path id="Vector" d="M68.7451 92.0977L81.0273 101.495C81.8223 102.089 82.8828 102.089 83.6777 101.495L95.8716 92.0977C100.113 88.8333 103.294 82.1064 103.294 76.3689L103.294 57.3755C103.294 56.3862 102.853 55.397 102.057 55.0012L83.4131 44.7134C82.7944 44.3176 81.999 44.3176 81.292 44.7134L62.6479 55.0012C61.8525 55.4958 61.3228 56.3862 61.4111 57.3755L61.4111 76.3689C61.4111 82.1064 64.5918 88.9321 68.8335 92.0977L68.7451 92.0977ZM66.0942 58.9583L82.2642 50.0552L98.4341 59.0571L98.4341 76.3689C98.4341 80.4246 96.0483 85.4697 93.1328 87.7451L82.1758 96.0547L71.3076 87.7451C68.3916 85.4697 66.0059 80.4246 66.0059 76.3689L66.0059 59.0571L66.0942 58.9583Z" fill="#5F5852" fill-opacity="1.000000" fill-rule="evenodd"/>
	<path id="Vector" d="M78.2881 80.3257C78.73 80.8203 79.3486 81.1172 79.9668 81.1172C80.5854 81.1172 81.2041 80.8203 81.646 80.3257L91.1006 69.741C92.0723 68.7517 92.0723 66.9712 91.1006 65.9819C90.2168 64.8938 88.6265 64.8938 87.7427 65.9819L79.9668 74.6873L76.8745 71.2249C75.9907 70.1367 74.4888 70.1367 73.5166 71.2249C72.5444 72.2141 72.5444 73.8958 73.5166 74.9839L78.2881 80.4248L78.2881 80.3257Z" fill="#5F5852" fill-opacity="1.000000" fill-rule="evenodd"/>
	<path id="Vector" d="M166.384 0.098877L46.1245 0.098877C35.6978 0.098877 27.2153 9.49658 27.2153 21.0708L26.4199 139.581L2.91602 139.581C1.23682 139.581 0 141.263 0 143.043L0 159.366C0 174.6 10.9565 187.163 24.1226 187.856L24.1226 188.054L125.384 188.054L125.384 187.856C126.18 187.856 126.622 188.054 127.151 188.054L127.24 188.054C141.289 187.955 152.6 175.095 152.511 159.366L152.511 55.6938L183.084 55.6938C184.763 55.6938 186 54.0122 186 52.1328L186 22.1589C186 9.99121 177.252 0.098877 166.384 0L166.384 0.098877ZM25.4478 181.327C14.7563 181.327 6.09668 171.435 6.09668 159.465L6.09668 146.407L101.704 146.407L101.704 159.465C101.704 167.082 104.354 174.303 109.126 179.744C109.656 180.338 110.186 180.634 110.716 181.426L25.4478 181.426L25.4478 181.327ZM146.502 159.465C146.502 171.435 137.932 181.327 127.24 181.327L127.151 181.327C116.372 181.228 107.712 171.435 107.712 159.366L107.712 143.142C107.712 141.263 106.387 139.68 104.708 139.68L32.5171 139.68L33.312 21.1697C33.312 13.3547 39.144 6.92456 46.2129 6.92456L152.246 6.92456C148.8 11.1785 146.591 16.5203 146.591 22.4556L146.591 159.564L146.502 159.465ZM179.991 22.3567L179.991 49.0662L152.511 49.0662L152.511 22.4556C152.511 14.0471 158.785 6.92456 166.295 6.92456L166.384 6.92456C173.895 7.02368 179.991 13.9482 179.991 22.3567Z" fill="#5F5852" fill-opacity="1.000000" fill-rule="evenodd"/>
	<path id="Vector" d="M125.384 104.661L53.105 104.661C51.4258 104.661 50.1006 106.145 50.1006 108.024C50.1006 109.904 51.4258 111.388 53.105 111.388L125.384 111.388C127.063 111.388 128.389 109.904 128.389 108.024C128.389 106.145 127.063 104.661 125.384 104.661Z" fill="#5F5852" fill-opacity="1.000000" fill-rule="evenodd"/>
	<path id="Vector" d="M125.384 120.192L53.105 120.192C51.4258 120.192 50.1006 121.676 50.1006 123.555C50.1006 125.435 51.4258 126.919 53.105 126.919L125.384 126.919C127.063 126.919 128.389 125.435 128.389 123.555C128.389 121.676 127.063 120.192 125.384 120.192Z" fill="#5F5852" fill-opacity="1.000000" fill-rule="evenodd"/>
</svg>
